<svg xmlns="http://www.w3.org/2000/svg" width="1080" height="420" viewBox="0 0 1080 420">
<rect width="100%" height="100%" fill="white" />
<text x="60" y="24" font-family="Segoe UI, Arial, sans-serif" font-size="18" fill="#111827">G and C farms north meter - Symo 24.0-3 480 (5) (61C085) - Inverter outage / near-zero production</text>
<line x1="60" y1="330" x2="1060" y2="330" stroke="#374151" />
<line x1="60" y1="40" x2="60" y2="330" stroke="#374151" />
<line x1="60" y1="330.0" x2="1060" y2="330.0" stroke="#e5e7eb" />
<text x="52" y="334.0" text-anchor="end" font-family="Segoe UI, Arial, sans-serif" font-size="11" fill="#4b5563">0</text>
<line x1="60" y1="301.0" x2="1060" y2="301.0" stroke="#e5e7eb" />
<line x1="60" y1="272.0" x2="1060" y2="272.0" stroke="#e5e7eb" />
<text x="52" y="276.0" text-anchor="end" font-family="Segoe UI, Arial, sans-serif" font-size="11" fill="#4b5563">50</text>
<line x1="60" y1="243.0" x2="1060" y2="243.0" stroke="#e5e7eb" />
<line x1="60" y1="214.0" x2="1060" y2="214.0" stroke="#e5e7eb" />
<text x="52" y="218.0" text-anchor="end" font-family="Segoe UI, Arial, sans-serif" font-size="11" fill="#4b5563">100</text>
<line x1="60" y1="185.0" x2="1060" y2="185.0" stroke="#e5e7eb" />
<line x1="60" y1="156.0" x2="1060" y2="156.0" stroke="#e5e7eb" />
<text x="52" y="160.0" text-anchor="end" font-family="Segoe UI, Arial, sans-serif" font-size="11" fill="#4b5563">150</text>
<line x1="60" y1="127.0" x2="1060" y2="127.0" stroke="#e5e7eb" />
<line x1="60" y1="98.0" x2="1060" y2="98.0" stroke="#e5e7eb" />
<text x="52" y="102.0" text-anchor="end" font-family="Segoe UI, Arial, sans-serif" font-size="11" fill="#4b5563">200</text>
<line x1="60" y1="69.0" x2="1060" y2="69.0" stroke="#e5e7eb" />
<line x1="60" y1="40.0" x2="1060" y2="40.0" stroke="#e5e7eb" />
<text x="52" y="44.0" text-anchor="end" font-family="Segoe UI, Arial, sans-serif" font-size="11" fill="#4b5563">250</text>
<text x="60.0" y="348" text-anchor="middle" font-family="Segoe UI, Arial, sans-serif" font-size="9" fill="#4b5563">2023-08-29</text>
<text x="160.0" y="348" text-anchor="middle" font-family="Segoe UI, Arial, sans-serif" font-size="9" fill="#4b5563">08-30</text>
<text x="260.0" y="348" text-anchor="middle" font-family="Segoe UI, Arial, sans-serif" font-size="9" fill="#4b5563">08-31</text>
<text x="360.0" y="348" text-anchor="middle" font-family="Segoe UI, Arial, sans-serif" font-size="9" fill="#4b5563">09-01</text>
<text x="460.0" y="348" text-anchor="middle" font-family="Segoe UI, Arial, sans-serif" font-size="9" fill="#4b5563">09-02</text>
<text x="560.0" y="348" text-anchor="middle" font-family="Segoe UI, Arial, sans-serif" font-size="9" fill="#4b5563">09-03</text>
<text x="660.0" y="348" text-anchor="middle" font-family="Segoe UI, Arial, sans-serif" font-size="9" fill="#4b5563">09-04</text>
<text x="760.0" y="348" text-anchor="middle" font-family="Segoe UI, Arial, sans-serif" font-size="9" fill="#4b5563">09-05</text>
<text x="860.0" y="348" text-anchor="middle" font-family="Segoe UI, Arial, sans-serif" font-size="9" fill="#4b5563">09-06</text>
<text x="960.0" y="348" text-anchor="middle" font-family="Segoe UI, Arial, sans-serif" font-size="9" fill="#4b5563">09-07</text>
<text x="1060.0" y="348" text-anchor="middle" font-family="Segoe UI, Arial, sans-serif" font-size="9" fill="#4b5563">2023-09-08</text>
<polyline fill="none" stroke="#2563eb" stroke-width="2" points="60.0,90.7 160.0,110.9 260.0,189.0 360.0,104.7 460.0,92.3 560.0,176.4 660.0,204.9 760.0,163.0 860.0,134.7 960.0,101.8 1060.0,240.1" />
<polyline fill="none" stroke="#dc2626" stroke-width="2" points="60.0,95.4 160.0,115.0 260.0,191.4 360.0,108.9 460.0,97.0 560.0,178.8 660.0,207.1 760.0,165.8 860.0,138.4 960.0,106.4 1060.0,241.4" />
<polyline fill="none" stroke="#16a34a" stroke-width="2" points="60.0,92.6 160.0,112.1 260.0,188.5 360.0,105.0 460.0,94.7 560.0,173.9 660.0,202.1 760.0,162.1 860.0,134.6 960.0,103.6 1060.0,237.8" />
<polyline fill="none" stroke="#d97706" stroke-width="2" points="60.0,89.5 160.0,109.5 260.0,186.8 360.0,102.6 460.0,94.3 560.0,173.5 660.0,202.2 760.0,160.3 860.0,133.1 960.0,100.7 1060.0,237.7" />
<polyline fill="none" stroke="#7c3aed" stroke-width="2" points="60.0,91.1 160.0,111.8" />
<polyline fill="none" stroke="#7c3aed" stroke-width="2" stroke-dasharray="6 4" points="160.0,111.8 260.0,330.0 360.0,330.0 460.0,330.0 560.0,330.0 660.0,330.0 760.0,330.0 860.0,330.0 960.0,330.0 1060.0,240.5" />
<circle cx="160.0" cy="111.8" r="4" fill="white" stroke="#7c3aed" stroke-width="2" />
<circle cx="1060.0" cy="240.5" r="4" fill="white" stroke="#7c3aed" stroke-width="2" />
<circle cx="160.0" cy="111.8" r="4" fill="#7c3aed" stroke="#7c3aed" stroke-width="2" />
<circle cx="160.0" cy="111.8" r="4" fill="#7c3aed" stroke="#7c3aed" stroke-width="2" />
<circle cx="160.0" cy="111.8" r="4" fill="#7c3aed" stroke="#7c3aed" stroke-width="2" />
<circle cx="160.0" cy="111.8" r="4" fill="#7c3aed" stroke="#7c3aed" stroke-width="2" />
<circle cx="160.0" cy="111.8" r="4" fill="#7c3aed" stroke="#7c3aed" stroke-width="2" />
<circle cx="160.0" cy="111.8" r="4" fill="#7c3aed" stroke="#7c3aed" stroke-width="2" />
<circle cx="160.0" cy="111.8" r="4" fill="#7c3aed" stroke="#7c3aed" stroke-width="2" />
<circle cx="1060.0" cy="240.5" r="4" fill="#7c3aed" stroke="#7c3aed" stroke-width="2" />
<polyline fill="none" stroke="#0891b2" stroke-width="2" points="60.0,95.9 160.0,115.9 260.0,192.2 360.0,109.5 460.0,97.4 560.0,180.5 660.0,210.0 760.0,166.7 860.0,139.2 960.0,107.1 1060.0,242.4" />
<polyline fill="none" stroke="#be185d" stroke-width="2" points="60.0,94.3 160.0,114.0 260.0,190.1 360.0,107.1 460.0,96.0 560.0,177.3 660.0,205.5 760.0,164.5 860.0,137.3 960.0,104.9 1060.0,240.3" />
<rect x="60" y="368" width="12" height="4" fill="#2563eb" />
<text x="78" y="372" font-family="Segoe UI, Arial, sans-serif" font-size="11" fill="#111827">Symo  24.0-3 480 (1) (61C069)</text>
<rect x="380" y="368" width="12" height="4" fill="#dc2626" />
<text x="398" y="372" font-family="Segoe UI, Arial, sans-serif" font-size="11" fill="#111827">Symo  24.0-3 480 (3) (61C073)</text>
<rect x="700" y="368" width="12" height="4" fill="#16a34a" />
<text x="718" y="372" font-family="Segoe UI, Arial, sans-serif" font-size="11" fill="#111827">Symo  24.0-3 480 (7) (61C098)</text>
<rect x="60" y="384" width="12" height="4" fill="#d97706" />
<text x="78" y="388" font-family="Segoe UI, Arial, sans-serif" font-size="11" fill="#111827">Symo 24.0-3 480 (4) (61C07C)</text>
<rect x="380" y="384" width="12" height="4" fill="#7c3aed" />
<text x="398" y="388" font-family="Segoe UI, Arial, sans-serif" font-size="11" fill="#111827">Symo 24.0-3 480 (5) (61C085)</text>
<rect x="700" y="384" width="12" height="4" fill="#0891b2" />
<text x="718" y="388" font-family="Segoe UI, Arial, sans-serif" font-size="11" fill="#111827">Symo 24.0-3 480 (6) (61C08F)</text>
<rect x="60" y="400" width="12" height="4" fill="#be185d" />
<text x="78" y="404" font-family="Segoe UI, Arial, sans-serif" font-size="11" fill="#111827">Symo Advanced 24.0-3 480 (2) (B030EC)</text>
</svg>