<svg xmlns="http://www.w3.org/2000/svg" width="1080" height="420" viewBox="0 0 1080 420">
<rect width="100%" height="100%" fill="white" />
<text x="60" y="24" font-family="Segoe UI, Arial, sans-serif" font-size="18" fill="#111827">G and C farms north meter - 4 inverters - Inverter outage / near-zero production</text>
<line x1="60" y1="330" x2="1060" y2="330" stroke="#374151" />
<line x1="60" y1="40" x2="60" y2="330" stroke="#374151" />
<line x1="60" y1="330.0" x2="1060" y2="330.0" stroke="#e5e7eb" />
<text x="52" y="334.0" text-anchor="end" font-family="Segoe UI, Arial, sans-serif" font-size="11" fill="#4b5563">0</text>
<line x1="60" y1="305.8" x2="1060" y2="305.8" stroke="#e5e7eb" />
<line x1="60" y1="281.7" x2="1060" y2="281.7" stroke="#e5e7eb" />
<text x="52" y="285.7" text-anchor="end" font-family="Segoe UI, Arial, sans-serif" font-size="11" fill="#4b5563">50</text>
<line x1="60" y1="257.5" x2="1060" y2="257.5" stroke="#e5e7eb" />
<line x1="60" y1="233.3" x2="1060" y2="233.3" stroke="#e5e7eb" />
<text x="52" y="237.3" text-anchor="end" font-family="Segoe UI, Arial, sans-serif" font-size="11" fill="#4b5563">100</text>
<line x1="60" y1="209.2" x2="1060" y2="209.2" stroke="#e5e7eb" />
<line x1="60" y1="185.0" x2="1060" y2="185.0" stroke="#e5e7eb" />
<text x="52" y="189.0" text-anchor="end" font-family="Segoe UI, Arial, sans-serif" font-size="11" fill="#4b5563">150</text>
<line x1="60" y1="160.8" x2="1060" y2="160.8" stroke="#e5e7eb" />
<line x1="60" y1="136.7" x2="1060" y2="136.7" stroke="#e5e7eb" />
<text x="52" y="140.7" text-anchor="end" font-family="Segoe UI, Arial, sans-serif" font-size="11" fill="#4b5563">200</text>
<line x1="60" y1="112.5" x2="1060" y2="112.5" stroke="#e5e7eb" />
<line x1="60" y1="88.3" x2="1060" y2="88.3" stroke="#e5e7eb" />
<text x="52" y="92.3" text-anchor="end" font-family="Segoe UI, Arial, sans-serif" font-size="11" fill="#4b5563">250</text>
<line x1="60" y1="64.2" x2="1060" y2="64.2" stroke="#e5e7eb" />
<line x1="60" y1="40.0" x2="1060" y2="40.0" stroke="#e5e7eb" />
<text x="52" y="44.0" text-anchor="end" font-family="Segoe UI, Arial, sans-serif" font-size="11" fill="#4b5563">300</text>
<text x="60.0" y="348" text-anchor="middle" font-family="Segoe UI, Arial, sans-serif" font-size="9" fill="#4b5563">2023-01-23</text>
<text x="66.4" y="348" text-anchor="middle" font-family="Segoe UI, Arial, sans-serif" font-size="9" fill="#4b5563">01-24</text>
<text x="72.7" y="348" text-anchor="middle" font-family="Segoe UI, Arial, sans-serif" font-size="9" fill="#4b5563">01-25</text>
<text x="79.1" y="348" text-anchor="middle" font-family="Segoe UI, Arial, sans-serif" font-size="9" fill="#4b5563">01-26</text>
<text x="85.5" y="348" text-anchor="middle" font-family="Segoe UI, Arial, sans-serif" font-size="9" fill="#4b5563">01-27</text>
<text x="91.8" y="348" text-anchor="middle" font-family="Segoe UI, Arial, sans-serif" font-size="9" fill="#4b5563">01-28</text>
<text x="98.2" y="348" text-anchor="middle" font-family="Segoe UI, Arial, sans-serif" font-size="9" fill="#4b5563">01-29</text>
<text x="104.6" y="348" text-anchor="middle" font-family="Segoe UI, Arial, sans-serif" font-size="9" fill="#4b5563">01-30</text>
<text x="111.0" y="348" text-anchor="middle" font-family="Segoe UI, Arial, sans-serif" font-size="9" fill="#4b5563">01-31</text>
<text x="117.3" y="348" text-anchor="middle" font-family="Segoe UI, Arial, sans-serif" font-size="9" fill="#4b5563">02-01</text>
<text x="123.7" y="348" text-anchor="middle" font-family="Segoe UI, Arial, sans-serif" font-size="9" fill="#4b5563">02-02</text>
<text x="130.1" y="348" text-anchor="middle" font-family="Segoe UI, Arial, sans-serif" font-size="9" fill="#4b5563">02-03</text>
<text x="136.4" y="348" text-anchor="middle" font-family="Segoe UI, Arial, sans-serif" font-size="9" fill="#4b5563">02-04</text>
<text x="142.8" y="348" text-anchor="middle" font-family="Segoe UI, Arial, sans-serif" font-size="9" fill="#4b5563">02-05</text>
<text x="149.2" y="348" text-anchor="middle" font-family="Segoe UI, Arial, sans-serif" font-size="9" fill="#4b5563">02-06</text>
<text x="155.5" y="348" text-anchor="middle" font-family="Segoe UI, Arial, sans-serif" font-size="9" fill="#4b5563">02-07</text>
<text x="161.9" y="348" text-anchor="middle" font-family="Segoe UI, Arial, sans-serif" font-size="9" fill="#4b5563">02-08</text>
<text x="168.3" y="348" text-anchor="middle" font-family="Segoe UI, Arial, sans-serif" font-size="9" fill="#4b5563">02-09</text>
<text x="174.6" y="348" text-anchor="middle" font-family="Segoe UI, Arial, sans-serif" font-size="9" fill="#4b5563">02-10</text>
<text x="181.0" y="348" text-anchor="middle" font-family="Segoe UI, Arial, sans-serif" font-size="9" fill="#4b5563">02-11</text>
<text x="187.4" y="348" text-anchor="middle" font-family="Segoe UI, Arial, sans-serif" font-size="9" fill="#4b5563">02-12</text>
<text x="193.8" y="348" text-anchor="middle" font-family="Segoe UI, Arial, sans-serif" font-size="9" fill="#4b5563">02-13</text>
<text x="200.1" y="348" text-anchor="middle" font-family="Segoe UI, Arial, sans-serif" font-size="9" fill="#4b5563">02-14</text>
<text x="206.5" y="348" text-anchor="middle" font-family="Segoe UI, Arial, sans-serif" font-size="9" fill="#4b5563">02-15</text>
<text x="212.9" y="348" text-anchor="middle" font-family="Segoe UI, Arial, sans-serif" font-size="9" fill="#4b5563">02-16</text>
<text x="219.2" y="348" text-anchor="middle" font-family="Segoe UI, Arial, sans-serif" font-size="9" fill="#4b5563">02-17</text>
<text x="225.6" y="348" text-anchor="middle" font-family="Segoe UI, Arial, sans-serif" font-size="9" fill="#4b5563">02-18</text>
<text x="232.0" y="348" text-anchor="middle" font-family="Segoe UI, Arial, sans-serif" font-size="9" fill="#4b5563">02-19</text>
<text x="238.3" y="348" text-anchor="middle" font-family="Segoe UI, Arial, sans-serif" font-size="9" fill="#4b5563">02-20</text>
<text x="244.7" y="348" text-anchor="middle" font-family="Segoe UI, Arial, sans-serif" font-size="9" fill="#4b5563">02-21</text>
<text x="251.1" y="348" text-anchor="middle" font-family="Segoe UI, Arial, sans-serif" font-size="9" fill="#4b5563">02-22</text>
<text x="257.5" y="348" text-anchor="middle" font-family="Segoe UI, Arial, sans-serif" font-size="9" fill="#4b5563">02-23</text>
<text x="263.8" y="348" text-anchor="middle" font-family="Segoe UI, Arial, sans-serif" font-size="9" fill="#4b5563">02-24</text>
<text x="270.2" y="348" text-anchor="middle" font-family="Segoe UI, Arial, sans-serif" font-size="9" fill="#4b5563">02-25</text>
<text x="276.6" y="348" text-anchor="middle" font-family="Segoe UI, Arial, sans-serif" font-size="9" fill="#4b5563">02-26</text>
<text x="282.9" y="348" text-anchor="middle" font-family="Segoe UI, Arial, sans-serif" font-size="9" fill="#4b5563">02-27</text>
<text x="289.3" y="348" text-anchor="middle" font-family="Segoe UI, Arial, sans-serif" font-size="9" fill="#4b5563">02-28</text>
<text x="295.7" y="348" text-anchor="middle" font-family="Segoe UI, Arial, sans-serif" font-size="9" fill="#4b5563">03-01</text>
<text x="302.0" y="348" text-anchor="middle" font-family="Segoe UI, Arial, sans-serif" font-size="9" fill="#4b5563">03-02</text>
<text x="308.4" y="348" text-anchor="middle" font-family="Segoe UI, Arial, sans-serif" font-size="9" fill="#4b5563">03-03</text>
<text x="314.8" y="348" text-anchor="middle" font-family="Segoe UI, Arial, sans-serif" font-size="9" fill="#4b5563">03-04</text>
<text x="321.1" y="348" text-anchor="middle" font-family="Segoe UI, Arial, sans-serif" font-size="9" fill="#4b5563">03-05</text>
<text x="327.5" y="348" text-anchor="middle" font-family="Segoe UI, Arial, sans-serif" font-size="9" fill="#4b5563">03-06</text>
<text x="333.9" y="348" text-anchor="middle" font-family="Segoe UI, Arial, sans-serif" font-size="9" fill="#4b5563">03-07</text>
<text x="340.3" y="348" text-anchor="middle" font-family="Segoe UI, Arial, sans-serif" font-size="9" fill="#4b5563">03-08</text>
<text x="346.6" y="348" text-anchor="middle" font-family="Segoe UI, Arial, sans-serif" font-size="9" fill="#4b5563">03-09</text>
<text x="353.0" y="348" text-anchor="middle" font-family="Segoe UI, Arial, sans-serif" font-size="9" fill="#4b5563">03-10</text>
<text x="359.4" y="348" text-anchor="middle" font-family="Segoe UI, Arial, sans-serif" font-size="9" fill="#4b5563">03-11</text>
<text x="365.7" y="348" text-anchor="middle" font-family="Segoe UI, Arial, sans-serif" font-size="9" fill="#4b5563">03-12</text>
<text x="372.1" y="348" text-anchor="middle" font-family="Segoe UI, Arial, sans-serif" font-size="9" fill="#4b5563">03-13</text>
<text x="378.5" y="348" text-anchor="middle" font-family="Segoe UI, Arial, sans-serif" font-size="9" fill="#4b5563">03-14</text>
<text x="384.8" y="348" text-anchor="middle" font-family="Segoe UI, Arial, sans-serif" font-size="9" fill="#4b5563">03-15</text>
<text x="391.2" y="348" text-anchor="middle" font-family="Segoe UI, Arial, sans-serif" font-size="9" fill="#4b5563">03-16</text>
<text x="397.6" y="348" text-anchor="middle" font-family="Segoe UI, Arial, sans-serif" font-size="9" fill="#4b5563">03-17</text>
<text x="403.9" y="348" text-anchor="middle" font-family="Segoe UI, Arial, sans-serif" font-size="9" fill="#4b5563">03-18</text>
<text x="410.3" y="348" text-anchor="middle" font-family="Segoe UI, Arial, sans-serif" font-size="9" fill="#4b5563">03-19</text>
<text x="416.7" y="348" text-anchor="middle" font-family="Segoe UI, Arial, sans-serif" font-size="9" fill="#4b5563">03-20</text>
<text x="423.1" y="348" text-anchor="middle" font-family="Segoe UI, Arial, sans-serif" font-size="9" fill="#4b5563">03-21</text>
<text x="429.4" y="348" text-anchor="middle" font-family="Segoe UI, Arial, sans-serif" font-size="9" fill="#4b5563">03-22</text>
<text x="435.8" y="348" text-anchor="middle" font-family="Segoe UI, Arial, sans-serif" font-size="9" fill="#4b5563">03-23</text>
<text x="442.2" y="348" text-anchor="middle" font-family="Segoe UI, Arial, sans-serif" font-size="9" fill="#4b5563">03-24</text>
<text x="448.5" y="348" text-anchor="middle" font-family="Segoe UI, Arial, sans-serif" font-size="9" fill="#4b5563">03-25</text>
<text x="454.9" y="348" text-anchor="middle" font-family="Segoe UI, Arial, sans-serif" font-size="9" fill="#4b5563">03-26</text>
<text x="461.3" y="348" text-anchor="middle" font-family="Segoe UI, Arial, sans-serif" font-size="9" fill="#4b5563">03-27</text>
<text x="467.6" y="348" text-anchor="middle" font-family="Segoe UI, Arial, sans-serif" font-size="9" fill="#4b5563">03-28</text>
<text x="474.0" y="348" text-anchor="middle" font-family="Segoe UI, Arial, sans-serif" font-size="9" fill="#4b5563">03-29</text>
<text x="480.4" y="348" text-anchor="middle" font-family="Segoe UI, Arial, sans-serif" font-size="9" fill="#4b5563">03-30</text>
<text x="486.8" y="348" text-anchor="middle" font-family="Segoe UI, Arial, sans-serif" font-size="9" fill="#4b5563">03-31</text>
<text x="493.1" y="348" text-anchor="middle" font-family="Segoe UI, Arial, sans-serif" font-size="9" fill="#4b5563">04-01</text>
<text x="499.5" y="348" text-anchor="middle" font-family="Segoe UI, Arial, sans-serif" font-size="9" fill="#4b5563">04-02</text>
<text x="505.9" y="348" text-anchor="middle" font-family="Segoe UI, Arial, sans-serif" font-size="9" fill="#4b5563">04-03</text>
<text x="512.2" y="348" text-anchor="middle" font-family="Segoe UI, Arial, sans-serif" font-size="9" fill="#4b5563">04-04</text>
<text x="518.6" y="348" text-anchor="middle" font-family="Segoe UI, Arial, sans-serif" font-size="9" fill="#4b5563">04-05</text>
<text x="525.0" y="348" text-anchor="middle" font-family="Segoe UI, Arial, sans-serif" font-size="9" fill="#4b5563">04-06</text>
<text x="531.3" y="348" text-anchor="middle" font-family="Segoe UI, Arial, sans-serif" font-size="9" fill="#4b5563">04-07</text>
<text x="537.7" y="348" text-anchor="middle" font-family="Segoe UI, Arial, sans-serif" font-size="9" fill="#4b5563">04-08</text>
<text x="544.1" y="348" text-anchor="middle" font-family="Segoe UI, Arial, sans-serif" font-size="9" fill="#4b5563">04-09</text>
<text x="550.4" y="348" text-anchor="middle" font-family="Segoe UI, Arial, sans-serif" font-size="9" fill="#4b5563">04-10</text>
<text x="556.8" y="348" text-anchor="middle" font-family="Segoe UI, Arial, sans-serif" font-size="9" fill="#4b5563">04-11</text>
<text x="563.2" y="348" text-anchor="middle" font-family="Segoe UI, Arial, sans-serif" font-size="9" fill="#4b5563">04-12</text>
<text x="569.6" y="348" text-anchor="middle" font-family="Segoe UI, Arial, sans-serif" font-size="9" fill="#4b5563">04-13</text>
<text x="575.9" y="348" text-anchor="middle" font-family="Segoe UI, Arial, sans-serif" font-size="9" fill="#4b5563">04-14</text>
<text x="582.3" y="348" text-anchor="middle" font-family="Segoe UI, Arial, sans-serif" font-size="9" fill="#4b5563">04-15</text>
<text x="588.7" y="348" text-anchor="middle" font-family="Segoe UI, Arial, sans-serif" font-size="9" fill="#4b5563">04-16</text>
<text x="595.0" y="348" text-anchor="middle" font-family="Segoe UI, Arial, sans-serif" font-size="9" fill="#4b5563">04-17</text>
<text x="601.4" y="348" text-anchor="middle" font-family="Segoe UI, Arial, sans-serif" font-size="9" fill="#4b5563">04-18</text>
<text x="607.8" y="348" text-anchor="middle" font-family="Segoe UI, Arial, sans-serif" font-size="9" fill="#4b5563">04-19</text>
<text x="614.1" y="348" text-anchor="middle" font-family="Segoe UI, Arial, sans-serif" font-size="9" fill="#4b5563">04-20</text>
<text x="620.5" y="348" text-anchor="middle" font-family="Segoe UI, Arial, sans-serif" font-size="9" fill="#4b5563">04-21</text>
<text x="626.9" y="348" text-anchor="middle" font-family="Segoe UI, Arial, sans-serif" font-size="9" fill="#4b5563">04-22</text>
<text x="633.2" y="348" text-anchor="middle" font-family="Segoe UI, Arial, sans-serif" font-size="9" fill="#4b5563">04-23</text>
<text x="639.6" y="348" text-anchor="middle" font-family="Segoe UI, Arial, sans-serif" font-size="9" fill="#4b5563">04-24</text>
<text x="646.0" y="348" text-anchor="middle" font-family="Segoe UI, Arial, sans-serif" font-size="9" fill="#4b5563">04-25</text>
<text x="652.4" y="348" text-anchor="middle" font-family="Segoe UI, Arial, sans-serif" font-size="9" fill="#4b5563">04-26</text>
<text x="658.7" y="348" text-anchor="middle" font-family="Segoe UI, Arial, sans-serif" font-size="9" fill="#4b5563">04-27</text>
<text x="665.1" y="348" text-anchor="middle" font-family="Segoe UI, Arial, sans-serif" font-size="9" fill="#4b5563">04-28</text>
<text x="671.5" y="348" text-anchor="middle" font-family="Segoe UI, Arial, sans-serif" font-size="9" fill="#4b5563">04-29</text>
<text x="677.8" y="348" text-anchor="middle" font-family="Segoe UI, Arial, sans-serif" font-size="9" fill="#4b5563">04-30</text>
<text x="684.2" y="348" text-anchor="middle" font-family="Segoe UI, Arial, sans-serif" font-size="9" fill="#4b5563">05-01</text>
<text x="690.6" y="348" text-anchor="middle" font-family="Segoe UI, Arial, sans-serif" font-size="9" fill="#4b5563">05-02</text>
<text x="696.9" y="348" text-anchor="middle" font-family="Segoe UI, Arial, sans-serif" font-size="9" fill="#4b5563">05-03</text>
<text x="703.3" y="348" text-anchor="middle" font-family="Segoe UI, Arial, sans-serif" font-size="9" fill="#4b5563">05-04</text>
<text x="709.7" y="348" text-anchor="middle" font-family="Segoe UI, Arial, sans-serif" font-size="9" fill="#4b5563">05-05</text>
<text x="716.1" y="348" text-anchor="middle" font-family="Segoe UI, Arial, sans-serif" font-size="9" fill="#4b5563">05-06</text>
<text x="722.4" y="348" text-anchor="middle" font-family="Segoe UI, Arial, sans-serif" font-size="9" fill="#4b5563">05-07</text>
<text x="728.8" y="348" text-anchor="middle" font-family="Segoe UI, Arial, sans-serif" font-size="9" fill="#4b5563">05-08</text>
<text x="735.2" y="348" text-anchor="middle" font-family="Segoe UI, Arial, sans-serif" font-size="9" fill="#4b5563">05-09</text>
<text x="741.5" y="348" text-anchor="middle" font-family="Segoe UI, Arial, sans-serif" font-size="9" fill="#4b5563">05-10</text>
<text x="747.9" y="348" text-anchor="middle" font-family="Segoe UI, Arial, sans-serif" font-size="9" fill="#4b5563">05-11</text>
<text x="754.3" y="348" text-anchor="middle" font-family="Segoe UI, Arial, sans-serif" font-size="9" fill="#4b5563">05-12</text>
<text x="760.6" y="348" text-anchor="middle" font-family="Segoe UI, Arial, sans-serif" font-size="9" fill="#4b5563">05-13</text>
<text x="767.0" y="348" text-anchor="middle" font-family="Segoe UI, Arial, sans-serif" font-size="9" fill="#4b5563">05-14</text>
<text x="773.4" y="348" text-anchor="middle" font-family="Segoe UI, Arial, sans-serif" font-size="9" fill="#4b5563">05-15</text>
<text x="779.7" y="348" text-anchor="middle" font-family="Segoe UI, Arial, sans-serif" font-size="9" fill="#4b5563">05-16</text>
<text x="786.1" y="348" text-anchor="middle" font-family="Segoe UI, Arial, sans-serif" font-size="9" fill="#4b5563">05-17</text>
<text x="792.5" y="348" text-anchor="middle" font-family="Segoe UI, Arial, sans-serif" font-size="9" fill="#4b5563">05-18</text>
<text x="798.9" y="348" text-anchor="middle" font-family="Segoe UI, Arial, sans-serif" font-size="9" fill="#4b5563">05-19</text>
<text x="805.2" y="348" text-anchor="middle" font-family="Segoe UI, Arial, sans-serif" font-size="9" fill="#4b5563">05-20</text>
<text x="811.6" y="348" text-anchor="middle" font-family="Segoe UI, Arial, sans-serif" font-size="9" fill="#4b5563">05-21</text>
<text x="818.0" y="348" text-anchor="middle" font-family="Segoe UI, Arial, sans-serif" font-size="9" fill="#4b5563">05-22</text>
<text x="824.3" y="348" text-anchor="middle" font-family="Segoe UI, Arial, sans-serif" font-size="9" fill="#4b5563">05-23</text>
<text x="830.7" y="348" text-anchor="middle" font-family="Segoe UI, Arial, sans-serif" font-size="9" fill="#4b5563">05-24</text>
<text x="837.1" y="348" text-anchor="middle" font-family="Segoe UI, Arial, sans-serif" font-size="9" fill="#4b5563">05-25</text>
<text x="843.4" y="348" text-anchor="middle" font-family="Segoe UI, Arial, sans-serif" font-size="9" fill="#4b5563">05-26</text>
<text x="849.8" y="348" text-anchor="middle" font-family="Segoe UI, Arial, sans-serif" font-size="9" fill="#4b5563">05-27</text>
<text x="856.2" y="348" text-anchor="middle" font-family="Segoe UI, Arial, sans-serif" font-size="9" fill="#4b5563">05-28</text>
<text x="862.5" y="348" text-anchor="middle" font-family="Segoe UI, Arial, sans-serif" font-size="9" fill="#4b5563">05-29</text>
<text x="868.9" y="348" text-anchor="middle" font-family="Segoe UI, Arial, sans-serif" font-size="9" fill="#4b5563">05-30</text>
<text x="875.3" y="348" text-anchor="middle" font-family="Segoe UI, Arial, sans-serif" font-size="9" fill="#4b5563">05-31</text>
<text x="881.7" y="348" text-anchor="middle" font-family="Segoe UI, Arial, sans-serif" font-size="9" fill="#4b5563">06-01</text>
<text x="888.0" y="348" text-anchor="middle" font-family="Segoe UI, Arial, sans-serif" font-size="9" fill="#4b5563">06-02</text>
<text x="894.4" y="348" text-anchor="middle" font-family="Segoe UI, Arial, sans-serif" font-size="9" fill="#4b5563">06-03</text>
<text x="900.8" y="348" text-anchor="middle" font-family="Segoe UI, Arial, sans-serif" font-size="9" fill="#4b5563">06-04</text>
<text x="907.1" y="348" text-anchor="middle" font-family="Segoe UI, Arial, sans-serif" font-size="9" fill="#4b5563">06-05</text>
<text x="913.5" y="348" text-anchor="middle" font-family="Segoe UI, Arial, sans-serif" font-size="9" fill="#4b5563">06-06</text>
<text x="919.9" y="348" text-anchor="middle" font-family="Segoe UI, Arial, sans-serif" font-size="9" fill="#4b5563">06-07</text>
<text x="926.2" y="348" text-anchor="middle" font-family="Segoe UI, Arial, sans-serif" font-size="9" fill="#4b5563">06-08</text>
<text x="932.6" y="348" text-anchor="middle" font-family="Segoe UI, Arial, sans-serif" font-size="9" fill="#4b5563">06-09</text>
<text x="939.0" y="348" text-anchor="middle" font-family="Segoe UI, Arial, sans-serif" font-size="9" fill="#4b5563">06-10</text>
<text x="945.4" y="348" text-anchor="middle" font-family="Segoe UI, Arial, sans-serif" font-size="9" fill="#4b5563">06-11</text>
<text x="951.7" y="348" text-anchor="middle" font-family="Segoe UI, Arial, sans-serif" font-size="9" fill="#4b5563">06-12</text>
<text x="958.1" y="348" text-anchor="middle" font-family="Segoe UI, Arial, sans-serif" font-size="9" fill="#4b5563">06-13</text>
<text x="964.5" y="348" text-anchor="middle" font-family="Segoe UI, Arial, sans-serif" font-size="9" fill="#4b5563">06-14</text>
<text x="970.8" y="348" text-anchor="middle" font-family="Segoe UI, Arial, sans-serif" font-size="9" fill="#4b5563">06-15</text>
<text x="977.2" y="348" text-anchor="middle" font-family="Segoe UI, Arial, sans-serif" font-size="9" fill="#4b5563">06-16</text>
<text x="983.6" y="348" text-anchor="middle" font-family="Segoe UI, Arial, sans-serif" font-size="9" fill="#4b5563">06-17</text>
<text x="989.9" y="348" text-anchor="middle" font-family="Segoe UI, Arial, sans-serif" font-size="9" fill="#4b5563">06-18</text>
<text x="996.3" y="348" text-anchor="middle" font-family="Segoe UI, Arial, sans-serif" font-size="9" fill="#4b5563">06-19</text>
<text x="1002.7" y="348" text-anchor="middle" font-family="Segoe UI, Arial, sans-serif" font-size="9" fill="#4b5563">06-20</text>
<text x="1009.0" y="348" text-anchor="middle" font-family="Segoe UI, Arial, sans-serif" font-size="9" fill="#4b5563">06-21</text>
<text x="1015.4" y="348" text-anchor="middle" font-family="Segoe UI, Arial, sans-serif" font-size="9" fill="#4b5563">06-22</text>
<text x="1021.8" y="348" text-anchor="middle" font-family="Segoe UI, Arial, sans-serif" font-size="9" fill="#4b5563">06-23</text>
<text x="1028.2" y="348" text-anchor="middle" font-family="Segoe UI, Arial, sans-serif" font-size="9" fill="#4b5563">06-24</text>
<text x="1034.5" y="348" text-anchor="middle" font-family="Segoe UI, Arial, sans-serif" font-size="9" fill="#4b5563">06-25</text>
<text x="1040.9" y="348" text-anchor="middle" font-family="Segoe UI, Arial, sans-serif" font-size="9" fill="#4b5563">06-26</text>
<text x="1047.3" y="348" text-anchor="middle" font-family="Segoe UI, Arial, sans-serif" font-size="9" fill="#4b5563">06-27</text>
<text x="1053.6" y="348" text-anchor="middle" font-family="Segoe UI, Arial, sans-serif" font-size="9" fill="#4b5563">06-28</text>
<text x="1060.0" y="348" text-anchor="middle" font-family="Segoe UI, Arial, sans-serif" font-size="9" fill="#4b5563">2023-06-29</text>
<polyline fill="none" stroke="#2563eb" stroke-width="2" points="690.6,116.4 696.9,116.6 703.3,125.9 709.7,115.7 716.1,212.7 722.4,206.9 728.8,175.5 735.2,172.6 741.5,130.0 747.9,161.0 754.3,154.7 760.6,131.2 767.0,132.9 773.4,113.5 779.7,113.4 786.1,156.4 792.5,110.1 798.9,116.9 805.2,174.5 811.6,151.9 818.0,146.2 824.3,110.1 830.7,190.8 837.1,197.6 843.4,136.6 849.8,221.2 856.2,140.7 862.5,120.2 868.9,110.3 875.3,119.7 881.7,142.2 888.0,146.2 894.4,276.9 900.8,111.3 907.1,149.9 913.5,168.0 919.9,120.7 926.2,125.8 932.6,115.0 939.0,117.6 945.4,110.3 951.7,113.9 958.1,110.5 964.5,167.2 970.8,193.8 977.2,114.6 983.6,112.0 989.9,205.0 996.3,104.8 1002.7,124.1 1009.0,116.3 1015.4,100.3 1021.8,108.7 1028.2,158.4 1034.5,128.3 1040.9,118.1 1047.3,127.0 1053.6,162.4 1060.0,110.7" />
<polyline fill="none" stroke="#dc2626" stroke-width="2" points="60.0,293.3 66.4,304.2 72.7,275.6 79.1,278.2 85.5,301.1 91.8,257.4 98.2,248.6 104.6,253.8 111.0,256.2 117.3,256.6 123.7,263.4 130.1,239.4 136.4,205.0 142.8,226.9 149.2,189.8 155.5,301.9 161.9,277.7 168.3,179.7 174.6,177.9 181.0,173.4 187.4,204.9 193.8,266.5 200.1,191.2 206.5,180.7 212.9,205.3 219.2,193.9 225.6,195.6 232.0,197.5 238.3,284.2 244.7,251.5 251.1,209.9 257.5,225.4 263.8,182.0 270.2,178.6 276.6,208.6 282.9,179.1 289.3,299.3 295.7,202.6 302.0,170.7 308.4,191.9 314.8,146.8 321.1,185.6 327.5,264.0 333.9,179.2 340.3,208.5 346.6,170.9 353.0,249.2 359.4,260.4 365.7,175.2 372.1,179.9 378.5,171.7 384.8,169.1 391.2,152.3 397.6,134.9 403.9,146.8 410.3,142.3 416.7,141.4 423.1,189.1 429.4,151.2 435.8,135.3 442.2,172.0 448.5,195.4 454.9,216.8 461.3,193.5 467.6,138.8 474.0,132.5 480.4,153.2 486.8,130.6 493.1,165.1 499.5,213.5 505.9,166.2 512.2,161.8 518.6,128.5 525.0,125.2 531.3,139.5 537.7,135.0 544.1,141.3 550.4,175.1 556.8,191.7 563.2,215.0 569.6,179.4 575.9,148.4 582.3,125.7 588.7,137.7 595.0,132.4 601.4,134.5 607.8,262.3 614.1,226.2 620.5,206.0 626.9,122.7 633.2,128.8 639.6,177.8 646.0,139.8 652.4,168.3 658.7,168.6 665.1,137.7 671.5,131.2 677.8,121.9 684.2,120.4 690.6,120.3 696.9,122.6 703.3,129.6 709.7,119.5 716.1,213.0 722.4,208.2 728.8,177.8 735.2,175.0 741.5,130.1 747.9,163.4 754.3,157.5 760.6,134.6 767.0,136.2 773.4,117.2 779.7,116.9 786.1,158.6 792.5,113.6 798.9,120.3 805.2,176.2 811.6,154.9 818.0,148.8 824.3,113.6 830.7,192.3 837.1,199.1 843.4,139.3 849.8,221.6 856.2,143.1 862.5,123.4 868.9,113.6 875.3,121.5 881.7,144.6 888.0,148.1 894.4,277.3 900.8,114.9 907.1,152.9 913.5,170.1 919.9,124.0 926.2,129.0 932.6,118.6 939.0,120.9 945.4,112.7 951.7,117.4 958.1,113.9 964.5,169.7 970.8,195.2 977.2,117.9 983.6,115.3 989.9,206.3 996.3,108.2 1002.7,127.0 1009.0,119.5 1015.4,110.0 1021.8,112.3 1028.2,160.9 1034.5,131.7 1040.9,121.7 1047.3,130.3 1053.6,165.0 1060.0,114.7" />
<polyline fill="none" stroke="#16a34a" stroke-width="2" points="72.7,278.3 79.1,280.1 85.5,304.2 91.8,263.3 98.2,256.7 104.6,265.9 111.0,256.2 117.3,258.7 123.7,265.3 130.1,242.2 136.4,208.4 142.8,231.3 149.2,189.6 155.5,303.5 161.9,283.9 168.3,181.7 174.6,182.8 181.0,173.8 187.4,206.7 193.8,268.1 200.1,193.2 206.5,183.7 212.9,206.2 219.2,193.7 225.6,195.5 232.0,199.3 238.3,290.5 244.7,251.0 251.1,216.4 257.5,248.4 263.8,195.0 270.2,179.7 276.6,213.7 282.9,181.2 289.3,282.6 295.7,187.7 302.0,171.8 308.4,192.0 314.8,147.5 321.1,183.0 327.5,256.2 333.9,171.4 340.3,214.6 346.6,170.5 353.0,251.7 359.4,283.3 365.7,211.0 372.1,194.1 378.5,179.0 384.8,182.0 391.2,155.6 397.6,140.8 403.9,156.5 410.3,148.4 416.7,145.0 423.1,204.8 429.4,157.2 435.8,140.2 442.2,184.6 448.5,220.5 454.9,229.7 461.3,204.3 467.6,143.2 474.0,138.3 480.4,172.1 486.8,137.0 493.1,172.1 499.5,243.3 505.9,176.9 512.2,181.9 518.6,131.8 525.0,129.0 531.3,147.0 537.7,138.3 544.1,145.3 550.4,180.9 556.8,197.5 563.2,219.0 569.6,186.7 575.9,150.7 582.3,125.7 588.7,138.2 595.0,133.0 601.4,138.5 607.8,261.6 614.1,232.4 620.5,209.1 626.9,121.7 633.2,128.2 639.6,179.4 646.0,139.5 652.4,170.9 658.7,168.4 665.1,135.9 671.5,128.4 677.8,119.3 684.2,117.9 690.6,117.4 696.9,117.1 703.3,127.8 709.7,117.1 716.1,209.9 722.4,205.2 728.8,174.9 735.2,171.6 741.5,129.1 747.9,161.5 754.3,154.7 760.6,131.3 767.0,133.2 773.4,115.0 779.7,114.1 786.1,154.9 792.5,111.0 798.9,117.6 805.2,171.5 811.6,153.1 818.0,145.5 824.3,111.0 830.7,188.7 837.1,195.6 843.4,136.7 849.8,217.7 856.2,140.0 862.5,121.2 868.9,111.5 875.3,119.7 881.7,141.0 888.0,146.0 894.4,275.6 900.8,112.1 907.1,150.7 913.5,167.4 919.9,121.5 926.2,126.2 932.6,116.6 939.0,117.9 945.4,110.6 951.7,115.4 958.1,112.0 964.5,168.3 970.8,192.2 977.2,115.5 983.6,113.4 989.9,204.3 996.3,106.4 1002.7,124.0 1009.0,119.3 1015.4,108.4 1021.8,110.0 1028.2,158.2 1034.5,129.6 1040.9,119.3 1047.3,127.5 1053.6,161.7 1060.0,111.9" />
<polyline fill="none" stroke="#d97706" stroke-width="2" points="60.0,285.5 66.4,302.8 72.7,261.8 79.1,275.6 85.5,304.7 91.8,259.4 98.2,249.7 104.6,256.6 111.0,258.2 117.3,263.2 123.7,268.2 130.1,240.1 136.4,190.4 142.8,220.3 149.2,178.8 155.5,300.3 161.9,269.0 168.3,167.3 174.6,168.3 181.0,162.8 187.4,199.2 193.8,263.6 200.1,185.7 206.5,171.5 212.9,198.0 219.2,189.9 225.6,191.7 232.0,192.8 238.3,274.8 244.7,238.1 251.1,193.7 257.5,206.0 263.8,158.9 270.2,166.2 276.6,202.4 282.9,173.2 289.3,298.3 295.7,238.1 302.0,166.4 308.4,185.5 314.8,140.7 321.1,178.8 327.5,236.4 333.9,165.1 340.3,199.2 346.6,164.1 353.0,238.4 359.4,248.9 365.7,164.1 372.1,169.0 378.5,166.4 384.8,162.3 391.2,147.1 397.6,130.0 403.9,141.0 410.3,136.8 416.7,135.9 423.1,184.6 429.4,144.8 435.8,128.9 442.2,165.6 448.5,187.9 454.9,213.5 461.3,178.8 467.6,131.6 474.0,126.3 480.4,144.4 486.8,125.3 493.1,159.4 499.5,202.4 505.9,160.9 512.2,151.5 518.6,121.9 525.0,119.0 531.3,134.0 537.7,130.1 544.1,136.2 550.4,172.2 556.8,186.4 563.2,210.8 569.6,174.9 575.9,143.1 582.3,120.5 588.7,133.0 595.0,127.6 601.4,129.4 607.8,258.3 614.1,218.4 620.5,201.9 626.9,121.6 633.2,123.1 639.6,172.7 646.0,134.9 652.4,163.2 658.7,164.0 665.1,132.7 671.5,126.6 677.8,117.0 684.2,115.6 690.6,115.6 696.9,117.5 703.3,125.1 709.7,114.8 716.1,210.1 722.4,204.5 728.8,173.4 735.2,170.8 741.5,125.4 747.9,159.1 754.3,153.1 760.6,129.5 767.0,131.0 773.4,112.6 779.7,111.8 786.1,153.9 792.5,109.0 798.9,115.3 805.2,171.8 811.6,150.9 818.0,144.2 824.3,108.9 830.7,188.5 837.1,195.7 843.4,134.8 849.8,218.2 856.2,138.2 862.5,118.6 868.9,109.1 875.3,117.1 881.7,139.6 888.0,143.1 894.4,275.8 900.8,110.0 907.1,149.1 913.5,166.0 919.9,119.2 926.2,124.5 932.6,113.9 939.0,115.6 945.4,108.0 951.7,112.9 958.1,109.5 964.5,166.2 970.8,191.0 977.2,113.1 983.6,110.5 989.9,203.3 996.3,103.9 1002.7,122.3 1009.0,115.1 1015.4,105.9 1021.8,107.8 1028.2,157.2 1034.5,127.2 1040.9,117.0 1047.3,125.5 1053.6,160.5 1060.0,109.4" />
<polyline fill="none" stroke="#7c3aed" stroke-width="2" points="60.0,284.9 66.4,302.4 72.7,261.1 79.1,275.3 85.5,304.1 91.8,261.9 98.2,253.6 104.6,260.8 111.0,258.5 117.3,263.5 123.7,268.6 130.1,240.2 136.4,191.9 142.8,220.9 149.2,180.7 155.5,299.9 161.9,270.0 168.3,168.7 174.6,170.7 181.0,165.0 187.4,200.6 193.8,264.0 200.1,185.9 206.5,172.7 212.9,199.3 219.2,191.7 225.6,193.5 232.0,196.9 238.3,279.6 244.7,235.6 251.1,196.7 257.5,199.2 263.8,159.6 270.2,168.1 276.6,203.5 282.9,174.9 289.3,270.4 295.7,186.8 302.0,166.3 308.4,187.0 314.8,143.1 321.1,176.0 327.5,238.7 333.9,166.8 340.3,199.5 346.6,164.7 353.0,230.4 359.4,241.5 365.7,166.3 372.1,183.1 378.5,194.5 384.8,164.7 391.2,149.2 397.6,132.5 403.9,143.0 410.3,139.3 416.7,138.6 423.1,183.6 429.4,147.1 435.8,131.2 442.2,165.9 448.5,187.9 454.9,210.4 461.3,180.8 467.6,134.0 474.0,128.7 480.4,145.2 486.8,131.4 493.1,161.4 499.5,198.8 505.9,159.7 512.2,150.9 518.6,124.3 525.0,121.7 531.3,136.1 537.7,132.9 544.1,138.7 550.4,171.5 556.8,188.4 563.2,211.7 569.6,176.0 575.9,145.8 582.3,123.6 588.7,135.8 595.0,130.0 601.4,130.9 607.8,256.9 614.1,210.1 620.5,201.4 626.9,120.2 633.2,125.7 639.6,174.6 646.0,137.2 652.4,163.9 658.7,166.0 665.1,134.6 671.5,129.6 677.8,119.4 684.2,118.1 690.6,116.2 696.9,122.1 703.3,129.0 709.7,118.7 716.1,218.5 722.4,213.0 728.8,179.5 735.2,177.8 741.5,130.3 747.9,164.8 754.3,160.6 760.6,134.9" />
<polyline fill="none" stroke="#7c3aed" stroke-width="2" points="818.0,150.4 824.3,113.2 830.7,195.8 837.1,203.7 843.4,140.6 849.8,226.6 856.2,144.9 862.5,123.3 868.9,113.2 875.3,121.6 881.7,150.0 888.0,153.2 894.4,279.6 900.8,114.4 907.1,153.5 913.5,172.1 919.9,124.4 926.2,129.4 932.6,118.1" />
<polyline fill="none" stroke="#7c3aed" stroke-width="2" points="951.7,320.7 958.1,113.3 964.5,170.7 970.8,198.6 977.2,118.3 983.6,114.5 989.9,209.2 996.3,107.1 1002.7,127.6 1009.0,119.0" />
<polyline fill="none" stroke="#7c3aed" stroke-width="2" points="1053.6,162.8 1060.0,110.8" />
<polyline fill="none" stroke="#7c3aed" stroke-width="2" stroke-dasharray="6 4" points="760.6,134.9 767.0,330.0 773.4,330.0 779.7,330.0 786.1,330.0 792.5,330.0 798.9,330.0 805.2,330.0 811.6,330.0 818.0,150.4" />
<polyline fill="none" stroke="#7c3aed" stroke-width="2" stroke-dasharray="6 4" points="932.6,118.1 939.0,330.0 945.4,330.0 951.7,320.7" />
<polyline fill="none" stroke="#7c3aed" stroke-width="2" stroke-dasharray="6 4" points="1009.0,119.0 1015.4,330.0 1021.8,330.0 1028.2,330.0 1034.5,330.0 1040.9,330.0 1047.3,330.0 1053.6,162.8" />
<circle cx="760.6" cy="134.9" r="4" fill="white" stroke="#7c3aed" stroke-width="2" />
<circle cx="818.0" cy="150.4" r="4" fill="white" stroke="#7c3aed" stroke-width="2" />
<circle cx="932.6" cy="118.1" r="4" fill="white" stroke="#7c3aed" stroke-width="2" />
<circle cx="951.7" cy="320.7" r="4" fill="white" stroke="#7c3aed" stroke-width="2" />
<circle cx="1009.0" cy="119.0" r="4" fill="white" stroke="#7c3aed" stroke-width="2" />
<circle cx="1053.6" cy="162.8" r="4" fill="white" stroke="#7c3aed" stroke-width="2" />
<circle cx="760.6" cy="134.9" r="4" fill="#7c3aed" stroke="#7c3aed" stroke-width="2" />
<circle cx="760.6" cy="134.9" r="4" fill="#7c3aed" stroke="#7c3aed" stroke-width="2" />
<circle cx="760.6" cy="134.9" r="4" fill="#7c3aed" stroke="#7c3aed" stroke-width="2" />
<circle cx="760.6" cy="134.9" r="4" fill="#7c3aed" stroke="#7c3aed" stroke-width="2" />
<circle cx="760.6" cy="134.9" r="4" fill="#7c3aed" stroke="#7c3aed" stroke-width="2" />
<circle cx="760.6" cy="134.9" r="4" fill="#7c3aed" stroke="#7c3aed" stroke-width="2" />
<circle cx="760.6" cy="134.9" r="4" fill="#7c3aed" stroke="#7c3aed" stroke-width="2" />
<circle cx="932.6" cy="118.1" r="4" fill="#7c3aed" stroke="#7c3aed" stroke-width="2" />
<circle cx="1009.0" cy="119.0" r="4" fill="#7c3aed" stroke="#7c3aed" stroke-width="2" />
<circle cx="1009.0" cy="119.0" r="4" fill="#7c3aed" stroke="#7c3aed" stroke-width="2" />
<circle cx="1009.0" cy="119.0" r="4" fill="#7c3aed" stroke="#7c3aed" stroke-width="2" />
<circle cx="1009.0" cy="119.0" r="4" fill="#7c3aed" stroke="#7c3aed" stroke-width="2" />
<circle cx="1009.0" cy="119.0" r="4" fill="#7c3aed" stroke="#7c3aed" stroke-width="2" />
<polyline fill="none" stroke="#0891b2" stroke-width="2" points="1015.4,222.6 1021.8,113.2 1028.2,162.5 1034.5,132.6 1040.9,122.9 1047.3,131.8 1053.6,166.3 1060.0,115.3" />
<polyline fill="none" stroke="#be185d" stroke-width="2" points="1015.4,226.3 1021.8,112.7 1028.2,161.4 1034.5,132.1 1040.9,122.1 1047.3,130.6 1053.6,164.9 1060.0,114.6" />
<rect x="60" y="368" width="12" height="4" fill="#2563eb" />
<text x="78" y="372" font-family="Segoe UI, Arial, sans-serif" font-size="11" fill="#111827">Symo  24.0-3 480 (1) (61C069)</text>
<rect x="380" y="368" width="12" height="4" fill="#dc2626" />
<text x="398" y="372" font-family="Segoe UI, Arial, sans-serif" font-size="11" fill="#111827">Symo  24.0-3 480 (3) (61C073)</text>
<rect x="700" y="368" width="12" height="4" fill="#16a34a" />
<text x="718" y="372" font-family="Segoe UI, Arial, sans-serif" font-size="11" fill="#111827">Symo  24.0-3 480 (7) (61C098)</text>
<rect x="60" y="384" width="12" height="4" fill="#d97706" />
<text x="78" y="388" font-family="Segoe UI, Arial, sans-serif" font-size="11" fill="#111827">Symo 24.0-3 480 (4) (61C07C)</text>
<rect x="380" y="384" width="12" height="4" fill="#7c3aed" />
<text x="398" y="388" font-family="Segoe UI, Arial, sans-serif" font-size="11" fill="#111827">Symo 24.0-3 480 (5) (61C085)</text>
<rect x="700" y="384" width="12" height="4" fill="#0891b2" />
<text x="718" y="388" font-family="Segoe UI, Arial, sans-serif" font-size="11" fill="#111827">Symo 24.0-3 480 (6) (61C08F)</text>
<rect x="60" y="400" width="12" height="4" fill="#be185d" />
<text x="78" y="404" font-family="Segoe UI, Arial, sans-serif" font-size="11" fill="#111827">Symo Advanced 24.0-3 480 (2) (B030EC)</text>
</svg>