<svg xmlns="http://www.w3.org/2000/svg" width="1080" height="420" viewBox="0 0 1080 420">
<rect width="100%" height="100%" fill="white" />
<text x="60" y="24" font-family="Segoe UI, Arial, sans-serif" font-size="18" fill="#111827">Penner Farms - 33-8-13 pump (site 3) - Symo  24.0-3 480 (5) (315554) - Sustained underperformance</text>
<line x1="60" y1="330" x2="1060" y2="330" stroke="#374151" />
<line x1="60" y1="40" x2="60" y2="330" stroke="#374151" />
<line x1="60" y1="330.0" x2="1060" y2="330.0" stroke="#e5e7eb" />
<text x="52" y="334.0" text-anchor="end" font-family="Segoe UI, Arial, sans-serif" font-size="11" fill="#4b5563">0</text>
<line x1="60" y1="293.8" x2="1060" y2="293.8" stroke="#e5e7eb" />
<line x1="60" y1="257.5" x2="1060" y2="257.5" stroke="#e5e7eb" />
<text x="52" y="261.5" text-anchor="end" font-family="Segoe UI, Arial, sans-serif" font-size="11" fill="#4b5563">50</text>
<line x1="60" y1="221.2" x2="1060" y2="221.2" stroke="#e5e7eb" />
<line x1="60" y1="185.0" x2="1060" y2="185.0" stroke="#e5e7eb" />
<text x="52" y="189.0" text-anchor="end" font-family="Segoe UI, Arial, sans-serif" font-size="11" fill="#4b5563">100</text>
<line x1="60" y1="148.8" x2="1060" y2="148.8" stroke="#e5e7eb" />
<line x1="60" y1="112.5" x2="1060" y2="112.5" stroke="#e5e7eb" />
<text x="52" y="116.5" text-anchor="end" font-family="Segoe UI, Arial, sans-serif" font-size="11" fill="#4b5563">150</text>
<line x1="60" y1="76.2" x2="1060" y2="76.2" stroke="#e5e7eb" />
<line x1="60" y1="40.0" x2="1060" y2="40.0" stroke="#e5e7eb" />
<text x="52" y="44.0" text-anchor="end" font-family="Segoe UI, Arial, sans-serif" font-size="11" fill="#4b5563">200</text>
<text x="60.0" y="348" text-anchor="middle" font-family="Segoe UI, Arial, sans-serif" font-size="9" fill="#4b5563">2025-02-02</text>
<text x="122.5" y="348" text-anchor="middle" font-family="Segoe UI, Arial, sans-serif" font-size="9" fill="#4b5563">02-03</text>
<text x="185.0" y="348" text-anchor="middle" font-family="Segoe UI, Arial, sans-serif" font-size="9" fill="#4b5563">02-04</text>
<text x="247.5" y="348" text-anchor="middle" font-family="Segoe UI, Arial, sans-serif" font-size="9" fill="#4b5563">02-05</text>
<text x="310.0" y="348" text-anchor="middle" font-family="Segoe UI, Arial, sans-serif" font-size="9" fill="#4b5563">02-06</text>
<text x="372.5" y="348" text-anchor="middle" font-family="Segoe UI, Arial, sans-serif" font-size="9" fill="#4b5563">02-07</text>
<text x="435.0" y="348" text-anchor="middle" font-family="Segoe UI, Arial, sans-serif" font-size="9" fill="#4b5563">02-08</text>
<text x="497.5" y="348" text-anchor="middle" font-family="Segoe UI, Arial, sans-serif" font-size="9" fill="#4b5563">02-09</text>
<text x="560.0" y="348" text-anchor="middle" font-family="Segoe UI, Arial, sans-serif" font-size="9" fill="#4b5563">02-10</text>
<text x="622.5" y="348" text-anchor="middle" font-family="Segoe UI, Arial, sans-serif" font-size="9" fill="#4b5563">02-11</text>
<text x="685.0" y="348" text-anchor="middle" font-family="Segoe UI, Arial, sans-serif" font-size="9" fill="#4b5563">02-12</text>
<text x="747.5" y="348" text-anchor="middle" font-family="Segoe UI, Arial, sans-serif" font-size="9" fill="#4b5563">02-13</text>
<text x="810.0" y="348" text-anchor="middle" font-family="Segoe UI, Arial, sans-serif" font-size="9" fill="#4b5563">02-14</text>
<text x="872.5" y="348" text-anchor="middle" font-family="Segoe UI, Arial, sans-serif" font-size="9" fill="#4b5563">02-15</text>
<text x="935.0" y="348" text-anchor="middle" font-family="Segoe UI, Arial, sans-serif" font-size="9" fill="#4b5563">02-16</text>
<text x="997.5" y="348" text-anchor="middle" font-family="Segoe UI, Arial, sans-serif" font-size="9" fill="#4b5563">02-17</text>
<text x="1060.0" y="348" text-anchor="middle" font-family="Segoe UI, Arial, sans-serif" font-size="9" fill="#4b5563">2025-02-18</text>
<polyline fill="none" stroke="#2563eb" stroke-width="2" points="60.0,304.6 122.5,307.2 185.0,315.5 247.5,303.4 310.0,302.4 372.5,300.2 435.0,271.1 497.5,280.4 560.0,240.9 622.5,264.8 685.0,223.0 747.5,166.5 810.0,295.4 872.5,295.1 935.0,302.4 997.5,280.9 1060.0,271.5" />
<polyline fill="none" stroke="#dc2626" stroke-width="2" points="60.0,303.8 122.5,307.1 185.0,317.5 247.5,304.2 310.0,303.9 372.5,305.0 435.0,295.4 497.5,298.2 560.0,278.2 622.5,291.7 685.0,274.8 747.5,203.7 810.0,299.4 872.5,298.7 935.0,305.8 997.5,287.5 1060.0,277.1" />
<polyline fill="none" stroke="#16a34a" stroke-width="2" points="60.0,307.6 122.5,310.0 185.0,316.4 247.5,305.0 310.0,305.0 372.5,287.2 435.0,248.0 497.5,272.5 560.0,213.0 622.5,246.0 685.0,192.8 747.5,136.7 810.0,295.0 872.5,295.1 935.0,301.9 997.5,285.4 1060.0,257.5" />
<polyline fill="none" stroke="#d97706" stroke-width="2" points="60.0,303.2 122.5,304.5 185.0,317.6 247.5,300.8 310.0,299.3 372.5,272.0 435.0,252.1 497.5,270.5 560.0,205.1 622.5,249.4 685.0,201.6 747.5,152.7 810.0,289.6 872.5,296.8 935.0,304.2 997.5,281.8 1060.0,260.0" />
<polyline fill="none" stroke="#7c3aed" stroke-width="2" points="60.0,307.2 122.5,309.7 185.0,316.5 247.5,300.8 310.0,299.6 372.5,258.6 435.0,232.3 497.5,259.2 560.0,187.5 622.5,231.5 685.0,170.1 747.5,120.3 810.0,290.7 872.5,294.3 935.0,301.3 997.5,279.4 1060.0,273.0" />
<rect x="60" y="368" width="12" height="4" fill="#2563eb" />
<text x="78" y="372" font-family="Segoe UI, Arial, sans-serif" font-size="11" fill="#111827">Symo  24.0-3 480 (1) (31554A)</text>
<rect x="380" y="368" width="12" height="4" fill="#dc2626" />
<text x="398" y="372" font-family="Segoe UI, Arial, sans-serif" font-size="11" fill="#111827">Symo  24.0-3 480 (5) (315554)</text>
<rect x="700" y="368" width="12" height="4" fill="#16a34a" />
<text x="718" y="372" font-family="Segoe UI, Arial, sans-serif" font-size="11" fill="#111827">Symo  24.0-3 480 (6) (315562)</text>
<rect x="60" y="384" width="12" height="4" fill="#d97706" />
<text x="78" y="388" font-family="Segoe UI, Arial, sans-serif" font-size="11" fill="#111827">Symo  24.0-3 480 (8) (315583)</text>
<rect x="380" y="384" width="12" height="4" fill="#7c3aed" />
<text x="398" y="388" font-family="Segoe UI, Arial, sans-serif" font-size="11" fill="#111827">Symo 24.0-3 480 (7) (315570)</text>
</svg>