<svg xmlns="http://www.w3.org/2000/svg" width="1080" height="420" viewBox="0 0 1080 420">
<rect width="100%" height="100%" fill="white" />
<text x="60" y="24" font-family="Segoe UI, Arial, sans-serif" font-size="18" fill="#111827">G and C farms south meter - Symo 24.0-3 480 (1) (ECDEE1) - Inverter outage / near-zero production</text>
<line x1="60" y1="330" x2="1060" y2="330" stroke="#374151" />
<line x1="60" y1="40" x2="60" y2="330" stroke="#374151" />
<line x1="60" y1="330.0" x2="1060" y2="330.0" stroke="#e5e7eb" />
<text x="52" y="334.0" text-anchor="end" font-family="Segoe UI, Arial, sans-serif" font-size="11" fill="#4b5563">0</text>
<line x1="60" y1="301.0" x2="1060" y2="301.0" stroke="#e5e7eb" />
<line x1="60" y1="272.0" x2="1060" y2="272.0" stroke="#e5e7eb" />
<text x="52" y="276.0" text-anchor="end" font-family="Segoe UI, Arial, sans-serif" font-size="11" fill="#4b5563">50</text>
<line x1="60" y1="243.0" x2="1060" y2="243.0" stroke="#e5e7eb" />
<line x1="60" y1="214.0" x2="1060" y2="214.0" stroke="#e5e7eb" />
<text x="52" y="218.0" text-anchor="end" font-family="Segoe UI, Arial, sans-serif" font-size="11" fill="#4b5563">100</text>
<line x1="60" y1="185.0" x2="1060" y2="185.0" stroke="#e5e7eb" />
<line x1="60" y1="156.0" x2="1060" y2="156.0" stroke="#e5e7eb" />
<text x="52" y="160.0" text-anchor="end" font-family="Segoe UI, Arial, sans-serif" font-size="11" fill="#4b5563">150</text>
<line x1="60" y1="127.0" x2="1060" y2="127.0" stroke="#e5e7eb" />
<line x1="60" y1="98.0" x2="1060" y2="98.0" stroke="#e5e7eb" />
<text x="52" y="102.0" text-anchor="end" font-family="Segoe UI, Arial, sans-serif" font-size="11" fill="#4b5563">200</text>
<line x1="60" y1="69.0" x2="1060" y2="69.0" stroke="#e5e7eb" />
<line x1="60" y1="40.0" x2="1060" y2="40.0" stroke="#e5e7eb" />
<text x="52" y="44.0" text-anchor="end" font-family="Segoe UI, Arial, sans-serif" font-size="11" fill="#4b5563">250</text>
<text x="60.0" y="348" text-anchor="middle" font-family="Segoe UI, Arial, sans-serif" font-size="9" fill="#4b5563">2023-07-24</text>
<text x="76.4" y="348" text-anchor="middle" font-family="Segoe UI, Arial, sans-serif" font-size="9" fill="#4b5563">07-25</text>
<text x="92.8" y="348" text-anchor="middle" font-family="Segoe UI, Arial, sans-serif" font-size="9" fill="#4b5563">07-26</text>
<text x="109.2" y="348" text-anchor="middle" font-family="Segoe UI, Arial, sans-serif" font-size="9" fill="#4b5563">07-27</text>
<text x="125.6" y="348" text-anchor="middle" font-family="Segoe UI, Arial, sans-serif" font-size="9" fill="#4b5563">07-28</text>
<text x="142.0" y="348" text-anchor="middle" font-family="Segoe UI, Arial, sans-serif" font-size="9" fill="#4b5563">07-29</text>
<text x="158.4" y="348" text-anchor="middle" font-family="Segoe UI, Arial, sans-serif" font-size="9" fill="#4b5563">07-30</text>
<text x="174.8" y="348" text-anchor="middle" font-family="Segoe UI, Arial, sans-serif" font-size="9" fill="#4b5563">07-31</text>
<text x="191.1" y="348" text-anchor="middle" font-family="Segoe UI, Arial, sans-serif" font-size="9" fill="#4b5563">08-01</text>
<text x="207.5" y="348" text-anchor="middle" font-family="Segoe UI, Arial, sans-serif" font-size="9" fill="#4b5563">08-02</text>
<text x="223.9" y="348" text-anchor="middle" font-family="Segoe UI, Arial, sans-serif" font-size="9" fill="#4b5563">08-03</text>
<text x="240.3" y="348" text-anchor="middle" font-family="Segoe UI, Arial, sans-serif" font-size="9" fill="#4b5563">08-04</text>
<text x="256.7" y="348" text-anchor="middle" font-family="Segoe UI, Arial, sans-serif" font-size="9" fill="#4b5563">08-05</text>
<text x="273.1" y="348" text-anchor="middle" font-family="Segoe UI, Arial, sans-serif" font-size="9" fill="#4b5563">08-06</text>
<text x="289.5" y="348" text-anchor="middle" font-family="Segoe UI, Arial, sans-serif" font-size="9" fill="#4b5563">08-07</text>
<text x="305.9" y="348" text-anchor="middle" font-family="Segoe UI, Arial, sans-serif" font-size="9" fill="#4b5563">08-08</text>
<text x="322.3" y="348" text-anchor="middle" font-family="Segoe UI, Arial, sans-serif" font-size="9" fill="#4b5563">08-09</text>
<text x="338.7" y="348" text-anchor="middle" font-family="Segoe UI, Arial, sans-serif" font-size="9" fill="#4b5563">08-10</text>
<text x="355.1" y="348" text-anchor="middle" font-family="Segoe UI, Arial, sans-serif" font-size="9" fill="#4b5563">08-11</text>
<text x="371.5" y="348" text-anchor="middle" font-family="Segoe UI, Arial, sans-serif" font-size="9" fill="#4b5563">08-12</text>
<text x="387.9" y="348" text-anchor="middle" font-family="Segoe UI, Arial, sans-serif" font-size="9" fill="#4b5563">08-13</text>
<text x="404.3" y="348" text-anchor="middle" font-family="Segoe UI, Arial, sans-serif" font-size="9" fill="#4b5563">08-14</text>
<text x="420.7" y="348" text-anchor="middle" font-family="Segoe UI, Arial, sans-serif" font-size="9" fill="#4b5563">08-15</text>
<text x="437.0" y="348" text-anchor="middle" font-family="Segoe UI, Arial, sans-serif" font-size="9" fill="#4b5563">08-16</text>
<text x="453.4" y="348" text-anchor="middle" font-family="Segoe UI, Arial, sans-serif" font-size="9" fill="#4b5563">08-17</text>
<text x="469.8" y="348" text-anchor="middle" font-family="Segoe UI, Arial, sans-serif" font-size="9" fill="#4b5563">08-18</text>
<text x="486.2" y="348" text-anchor="middle" font-family="Segoe UI, Arial, sans-serif" font-size="9" fill="#4b5563">08-19</text>
<text x="502.6" y="348" text-anchor="middle" font-family="Segoe UI, Arial, sans-serif" font-size="9" fill="#4b5563">08-20</text>
<text x="519.0" y="348" text-anchor="middle" font-family="Segoe UI, Arial, sans-serif" font-size="9" fill="#4b5563">08-21</text>
<text x="535.4" y="348" text-anchor="middle" font-family="Segoe UI, Arial, sans-serif" font-size="9" fill="#4b5563">08-22</text>
<text x="551.8" y="348" text-anchor="middle" font-family="Segoe UI, Arial, sans-serif" font-size="9" fill="#4b5563">08-23</text>
<text x="568.2" y="348" text-anchor="middle" font-family="Segoe UI, Arial, sans-serif" font-size="9" fill="#4b5563">08-24</text>
<text x="584.6" y="348" text-anchor="middle" font-family="Segoe UI, Arial, sans-serif" font-size="9" fill="#4b5563">08-25</text>
<text x="601.0" y="348" text-anchor="middle" font-family="Segoe UI, Arial, sans-serif" font-size="9" fill="#4b5563">08-26</text>
<text x="617.4" y="348" text-anchor="middle" font-family="Segoe UI, Arial, sans-serif" font-size="9" fill="#4b5563">08-27</text>
<text x="633.8" y="348" text-anchor="middle" font-family="Segoe UI, Arial, sans-serif" font-size="9" fill="#4b5563">08-28</text>
<text x="650.2" y="348" text-anchor="middle" font-family="Segoe UI, Arial, sans-serif" font-size="9" fill="#4b5563">08-29</text>
<text x="666.6" y="348" text-anchor="middle" font-family="Segoe UI, Arial, sans-serif" font-size="9" fill="#4b5563">08-30</text>
<text x="683.0" y="348" text-anchor="middle" font-family="Segoe UI, Arial, sans-serif" font-size="9" fill="#4b5563">08-31</text>
<text x="699.3" y="348" text-anchor="middle" font-family="Segoe UI, Arial, sans-serif" font-size="9" fill="#4b5563">09-01</text>
<text x="715.7" y="348" text-anchor="middle" font-family="Segoe UI, Arial, sans-serif" font-size="9" fill="#4b5563">09-02</text>
<text x="732.1" y="348" text-anchor="middle" font-family="Segoe UI, Arial, sans-serif" font-size="9" fill="#4b5563">09-03</text>
<text x="748.5" y="348" text-anchor="middle" font-family="Segoe UI, Arial, sans-serif" font-size="9" fill="#4b5563">09-04</text>
<text x="764.9" y="348" text-anchor="middle" font-family="Segoe UI, Arial, sans-serif" font-size="9" fill="#4b5563">09-05</text>
<text x="781.3" y="348" text-anchor="middle" font-family="Segoe UI, Arial, sans-serif" font-size="9" fill="#4b5563">09-06</text>
<text x="797.7" y="348" text-anchor="middle" font-family="Segoe UI, Arial, sans-serif" font-size="9" fill="#4b5563">09-07</text>
<text x="814.1" y="348" text-anchor="middle" font-family="Segoe UI, Arial, sans-serif" font-size="9" fill="#4b5563">09-08</text>
<text x="830.5" y="348" text-anchor="middle" font-family="Segoe UI, Arial, sans-serif" font-size="9" fill="#4b5563">09-09</text>
<text x="846.9" y="348" text-anchor="middle" font-family="Segoe UI, Arial, sans-serif" font-size="9" fill="#4b5563">09-10</text>
<text x="863.3" y="348" text-anchor="middle" font-family="Segoe UI, Arial, sans-serif" font-size="9" fill="#4b5563">09-11</text>
<text x="879.7" y="348" text-anchor="middle" font-family="Segoe UI, Arial, sans-serif" font-size="9" fill="#4b5563">09-12</text>
<text x="896.1" y="348" text-anchor="middle" font-family="Segoe UI, Arial, sans-serif" font-size="9" fill="#4b5563">09-13</text>
<text x="912.5" y="348" text-anchor="middle" font-family="Segoe UI, Arial, sans-serif" font-size="9" fill="#4b5563">09-14</text>
<text x="928.9" y="348" text-anchor="middle" font-family="Segoe UI, Arial, sans-serif" font-size="9" fill="#4b5563">09-15</text>
<text x="945.2" y="348" text-anchor="middle" font-family="Segoe UI, Arial, sans-serif" font-size="9" fill="#4b5563">09-16</text>
<text x="961.6" y="348" text-anchor="middle" font-family="Segoe UI, Arial, sans-serif" font-size="9" fill="#4b5563">09-17</text>
<text x="978.0" y="348" text-anchor="middle" font-family="Segoe UI, Arial, sans-serif" font-size="9" fill="#4b5563">09-18</text>
<text x="994.4" y="348" text-anchor="middle" font-family="Segoe UI, Arial, sans-serif" font-size="9" fill="#4b5563">09-19</text>
<text x="1010.8" y="348" text-anchor="middle" font-family="Segoe UI, Arial, sans-serif" font-size="9" fill="#4b5563">09-20</text>
<text x="1027.2" y="348" text-anchor="middle" font-family="Segoe UI, Arial, sans-serif" font-size="9" fill="#4b5563">09-21</text>
<text x="1043.6" y="348" text-anchor="middle" font-family="Segoe UI, Arial, sans-serif" font-size="9" fill="#4b5563">09-22</text>
<text x="1060.0" y="348" text-anchor="middle" font-family="Segoe UI, Arial, sans-serif" font-size="9" fill="#4b5563">2023-09-23</text>
<polyline fill="none" stroke="#2563eb" stroke-width="2" points="60.0,88.4 76.4,80.0 92.8,74.9 109.2,99.5 125.6,166.2 142.0,89.1 158.4,92.7 174.8,80.8 191.1,76.3 207.5,77.9 223.9,77.8 240.3,83.9 256.7,115.8 273.1,81.5 289.5,117.1 305.9,99.0 322.3,140.5 338.7,128.8 355.1,88.6 371.5,191.0 387.9,84.1 404.3,85.4 420.7,85.6 437.0,90.5 453.4,108.1 469.8,137.8 486.2,127.6 502.6,168.4 519.0,224.5 535.4,174.1 551.8,95.8 568.2,100.9 584.6,91.6 601.0,91.1 617.4,98.3 633.8,95.3 650.2,94.8 666.6,113.2 683.0,191.6 699.3,108.3 715.7,96.9 732.1,176.4 748.5,202.5 764.9,161.7 781.3,137.6 797.7,107.5 814.1,235.5 830.5,140.7 846.9,97.3 863.3,110.4 879.7,125.2 896.1,140.3 912.5,109.6 928.9,100.2 945.2,99.3 961.6,171.7 978.0,117.8 994.4,171.4 1010.8,120.2 1027.2,142.6 1043.6,184.2 1060.0,161.5" />
<polyline fill="none" stroke="#dc2626" stroke-width="2" points="60.0,86.3 76.4,78.4 92.8,73.2 109.2,96.6 125.6,242.2" />
<polyline fill="none" stroke="#dc2626" stroke-width="2" points="994.4,247.9 1010.8,117.4 1027.2,141.0 1043.6,182.1 1060.0,158.5" />
<polyline fill="none" stroke="#dc2626" stroke-width="2" stroke-dasharray="6 4" points="125.6,242.2 142.0,330.0 158.4,330.0 174.8,330.0 191.1,330.0 207.5,330.0 223.9,330.0 240.3,330.0 256.7,330.0 273.1,330.0 289.5,330.0 305.9,330.0 322.3,330.0 338.7,330.0 355.1,330.0 371.5,330.0 387.9,330.0 404.3,330.0 420.7,330.0 437.0,330.0 453.4,330.0 469.8,330.0 486.2,330.0 502.6,330.0 519.0,330.0 535.4,330.0 551.8,330.0 568.2,330.0 584.6,330.0 601.0,330.0 617.4,330.0 633.8,330.0 650.2,330.0 666.6,330.0 683.0,330.0 699.3,330.0 715.7,330.0 732.1,330.0 748.5,330.0 764.9,330.0 781.3,330.0 797.7,330.0 814.1,330.0 830.5,330.0 846.9,330.0 863.3,330.0 879.7,330.0 896.1,330.0 912.5,330.0 928.9,330.0 945.2,330.0 961.6,330.0 978.0,330.0 994.4,247.9" />
<circle cx="125.6" cy="242.2" r="4" fill="white" stroke="#dc2626" stroke-width="2" />
<circle cx="994.4" cy="247.9" r="4" fill="white" stroke="#dc2626" stroke-width="2" />
<circle cx="125.6" cy="242.2" r="4" fill="#dc2626" stroke="#dc2626" stroke-width="2" />
<circle cx="125.6" cy="242.2" r="4" fill="#dc2626" stroke="#dc2626" stroke-width="2" />
<circle cx="125.6" cy="242.2" r="4" fill="#dc2626" stroke="#dc2626" stroke-width="2" />
<circle cx="125.6" cy="242.2" r="4" fill="#dc2626" stroke="#dc2626" stroke-width="2" />
<circle cx="125.6" cy="242.2" r="4" fill="#dc2626" stroke="#dc2626" stroke-width="2" />
<circle cx="125.6" cy="242.2" r="4" fill="#dc2626" stroke="#dc2626" stroke-width="2" />
<circle cx="125.6" cy="242.2" r="4" fill="#dc2626" stroke="#dc2626" stroke-width="2" />
<circle cx="125.6" cy="242.2" r="4" fill="#dc2626" stroke="#dc2626" stroke-width="2" />
<circle cx="125.6" cy="242.2" r="4" fill="#dc2626" stroke="#dc2626" stroke-width="2" />
<circle cx="125.6" cy="242.2" r="4" fill="#dc2626" stroke="#dc2626" stroke-width="2" />
<circle cx="125.6" cy="242.2" r="4" fill="#dc2626" stroke="#dc2626" stroke-width="2" />
<circle cx="125.6" cy="242.2" r="4" fill="#dc2626" stroke="#dc2626" stroke-width="2" />
<circle cx="125.6" cy="242.2" r="4" fill="#dc2626" stroke="#dc2626" stroke-width="2" />
<circle cx="125.6" cy="242.2" r="4" fill="#dc2626" stroke="#dc2626" stroke-width="2" />
<circle cx="125.6" cy="242.2" r="4" fill="#dc2626" stroke="#dc2626" stroke-width="2" />
<circle cx="125.6" cy="242.2" r="4" fill="#dc2626" stroke="#dc2626" stroke-width="2" />
<circle cx="125.6" cy="242.2" r="4" fill="#dc2626" stroke="#dc2626" stroke-width="2" />
<circle cx="125.6" cy="242.2" r="4" fill="#dc2626" stroke="#dc2626" stroke-width="2" />
<circle cx="125.6" cy="242.2" r="4" fill="#dc2626" stroke="#dc2626" stroke-width="2" />
<circle cx="125.6" cy="242.2" r="4" fill="#dc2626" stroke="#dc2626" stroke-width="2" />
<circle cx="125.6" cy="242.2" r="4" fill="#dc2626" stroke="#dc2626" stroke-width="2" />
<circle cx="125.6" cy="242.2" r="4" fill="#dc2626" stroke="#dc2626" stroke-width="2" />
<circle cx="125.6" cy="242.2" r="4" fill="#dc2626" stroke="#dc2626" stroke-width="2" />
<circle cx="125.6" cy="242.2" r="4" fill="#dc2626" stroke="#dc2626" stroke-width="2" />
<circle cx="125.6" cy="242.2" r="4" fill="#dc2626" stroke="#dc2626" stroke-width="2" />
<circle cx="125.6" cy="242.2" r="4" fill="#dc2626" stroke="#dc2626" stroke-width="2" />
<circle cx="125.6" cy="242.2" r="4" fill="#dc2626" stroke="#dc2626" stroke-width="2" />
<circle cx="125.6" cy="242.2" r="4" fill="#dc2626" stroke="#dc2626" stroke-width="2" />
<circle cx="125.6" cy="242.2" r="4" fill="#dc2626" stroke="#dc2626" stroke-width="2" />
<circle cx="125.6" cy="242.2" r="4" fill="#dc2626" stroke="#dc2626" stroke-width="2" />
<circle cx="125.6" cy="242.2" r="4" fill="#dc2626" stroke="#dc2626" stroke-width="2" />
<circle cx="125.6" cy="242.2" r="4" fill="#dc2626" stroke="#dc2626" stroke-width="2" />
<circle cx="125.6" cy="242.2" r="4" fill="#dc2626" stroke="#dc2626" stroke-width="2" />
<circle cx="125.6" cy="242.2" r="4" fill="#dc2626" stroke="#dc2626" stroke-width="2" />
<circle cx="125.6" cy="242.2" r="4" fill="#dc2626" stroke="#dc2626" stroke-width="2" />
<circle cx="125.6" cy="242.2" r="4" fill="#dc2626" stroke="#dc2626" stroke-width="2" />
<circle cx="125.6" cy="242.2" r="4" fill="#dc2626" stroke="#dc2626" stroke-width="2" />
<circle cx="125.6" cy="242.2" r="4" fill="#dc2626" stroke="#dc2626" stroke-width="2" />
<circle cx="125.6" cy="242.2" r="4" fill="#dc2626" stroke="#dc2626" stroke-width="2" />
<circle cx="125.6" cy="242.2" r="4" fill="#dc2626" stroke="#dc2626" stroke-width="2" />
<circle cx="125.6" cy="242.2" r="4" fill="#dc2626" stroke="#dc2626" stroke-width="2" />
<circle cx="125.6" cy="242.2" r="4" fill="#dc2626" stroke="#dc2626" stroke-width="2" />
<circle cx="125.6" cy="242.2" r="4" fill="#dc2626" stroke="#dc2626" stroke-width="2" />
<circle cx="125.6" cy="242.2" r="4" fill="#dc2626" stroke="#dc2626" stroke-width="2" />
<circle cx="125.6" cy="242.2" r="4" fill="#dc2626" stroke="#dc2626" stroke-width="2" />
<circle cx="125.6" cy="242.2" r="4" fill="#dc2626" stroke="#dc2626" stroke-width="2" />
<circle cx="125.6" cy="242.2" r="4" fill="#dc2626" stroke="#dc2626" stroke-width="2" />
<circle cx="125.6" cy="242.2" r="4" fill="#dc2626" stroke="#dc2626" stroke-width="2" />
<circle cx="125.6" cy="242.2" r="4" fill="#dc2626" stroke="#dc2626" stroke-width="2" />
<circle cx="125.6" cy="242.2" r="4" fill="#dc2626" stroke="#dc2626" stroke-width="2" />
<circle cx="125.6" cy="242.2" r="4" fill="#dc2626" stroke="#dc2626" stroke-width="2" />
<polyline fill="none" stroke="#16a34a" stroke-width="2" points="60.0,84.5 76.4,77.0 92.8,71.0 109.2,95.7 125.6,160.5 142.0,85.5 158.4,88.7 174.8,75.4 191.1,72.6 207.5,73.9 223.9,73.9 240.3,80.2 256.7,114.0 273.1,78.1 289.5,114.6 305.9,95.5 322.3,137.5 338.7,125.9 355.1,84.9 371.5,189.7 387.9,80.4 404.3,81.8 420.7,81.8 437.0,86.7 453.4,104.5 469.8,134.6 486.2,124.8 502.6,166.0 519.0,224.0 535.4,173.5 551.8,92.0 568.2,97.0 584.6,87.4 601.0,87.3 617.4,94.4 633.8,91.3 650.2,90.8 666.6,109.7 683.0,189.9 699.3,104.9 715.7,93.2 732.1,175.1 748.5,201.4 764.9,158.9 781.3,134.3 797.7,103.8 814.1,234.8 830.5,134.2 846.9,93.2 863.3,106.4 879.7,122.0 896.1,137.1 912.5,105.7 928.9,96.0 945.2,95.3 961.6,169.2 978.0,113.8 994.4,169.0 1010.8,116.3 1027.2,139.5 1043.6,181.8 1060.0,158.4" />
<polyline fill="none" stroke="#d97706" stroke-width="2" points="60.0,86.6 76.4,79.1 92.8,73.7 109.2,96.8 125.6,160.5 142.0,87.2 158.4,91.1 174.8,79.9 191.1,75.1 207.5,76.3 223.9,75.9 240.3,82.0 256.7,112.3 273.1,79.6 289.5,115.1 305.9,97.2 322.3,138.6 338.7,126.4 355.1,86.9 371.5,188.6 387.9,82.7 404.3,84.0 420.7,84.1 437.0,88.7 453.4,105.6 469.8,135.2 486.2,125.5 502.6,165.9 519.0,222.2 535.4,173.2 551.8,93.6 568.2,99.1 584.6,89.5 601.0,89.6 617.4,96.3 633.8,93.3 650.2,93.0 666.6,111.0 683.0,189.9 699.3,105.5 715.7,95.6 732.1,173.2 748.5,199.6 764.9,159.4 781.3,134.6 797.7,105.3 814.1,233.4 830.5,135.4 846.9,95.7 863.3,108.4 879.7,122.7 896.1,137.3 912.5,108.2 928.9,98.4 945.2,97.6 961.6,167.7 978.0,115.5 994.4,170.5 1010.8,118.0 1027.2,141.4 1043.6,181.9 1060.0,158.9" />
<polyline fill="none" stroke="#7c3aed" stroke-width="2" points="60.0,90.1 76.4,82.0 92.8,76.9 109.2,101.7 125.6,167.1 142.0,91.0 158.4,94.0 174.8,79.2 191.1,78.1 207.5,79.6 223.9,79.4 240.3,85.3 256.7,118.2 273.1,83.0 289.5,118.7 305.9,100.2 322.3,141.8 338.7,130.3 355.1,89.7 371.5,193.1 387.9,85.7 404.3,87.0 420.7,87.2 437.0,91.6 453.4,109.4 469.8,139.0 486.2,128.7 502.6,170.1 519.0,226.6 535.4,175.8 551.8,96.8 568.2,101.8 584.6,92.4 601.0,92.0 617.4,99.2 633.8,96.1 650.2,95.7 666.6,114.2 683.0,192.5 699.3,109.2 715.7,97.5 732.1,178.1 748.5,204.0 764.9,162.7 781.3,138.7 797.7,108.1 814.1,236.9 830.5,141.2 846.9,97.7 863.3,110.8 879.7,125.7 896.1,140.7 912.5,109.6 928.9,100.4 945.2,99.5 961.6,172.7 978.0,117.9 994.4,172.4 1010.8,120.2 1027.2,142.7 1043.6,184.8 1060.0,162.3" />
<polyline fill="none" stroke="#0891b2" stroke-width="2" points="60.0,87.8 76.4,79.2 92.8,74.3 109.2,98.6 125.6,160.8 142.0,88.4 158.4,92.3 174.8,76.8 191.1,75.9 207.5,77.5 223.9,77.2 240.3,83.2 256.7,114.4 273.1,81.0 289.5,116.4 305.9,98.4 322.3,140.0 338.7,128.1 355.1,87.6 371.5,190.0 387.9,83.6 404.3,84.7 420.7,85.0 437.0,89.9 453.4,107.2 469.8,137.0 486.2,126.9 502.6,167.6 519.0,223.6 535.4,172.9 551.8,95.2 568.2,100.4 584.6,91.1 601.0,90.6 617.4,97.6 633.8,94.7 650.2,94.3 666.6,112.6 683.0,191.1 699.3,107.5 715.7,96.4 732.1,175.4 748.5,201.6 764.9,161.1 781.3,136.9 797.7,106.8 814.1,234.9 830.5,140.1 846.9,96.8 863.3,110.0 879.7,124.6 896.1,139.3 912.5,109.3 928.9,99.8 945.2,98.9 961.6,170.8 978.0,117.3 994.4,171.6 1010.8,119.6 1027.2,142.1 1043.6,183.5 1060.0,161.0" />
<polyline fill="none" stroke="#be185d" stroke-width="2" points="60.0,85.4 76.4,77.3 92.8,71.8 109.2,97.0 125.6,160.7 142.0,86.3 158.4,89.2 174.8,74.2 191.1,73.2 207.5,74.6 223.9,74.7 240.3,80.6 256.7,114.6 273.1,78.4 289.5,114.8 305.9,96.7 322.3,138.4 338.7,126.9 355.1,85.4 371.5,190.3 387.9,81.0 404.3,82.4 420.7,82.3 437.0,87.4 453.4,105.3 469.8,135.6 486.2,125.4 502.6,166.6 519.0,224.4 535.4,173.7 551.8,92.9 568.2,97.8 584.6,88.3 601.0,88.0 617.4,95.3 633.8,92.2 650.2,91.6 666.6,110.7 683.0,190.6 699.3,106.0 715.7,93.8 732.1,176.4 748.5,202.5 764.9,159.8 781.3,135.4 797.7,104.5 814.1,235.4 830.5,135.3 846.9,93.8 863.3,107.1 879.7,123.1 896.1,138.2 912.5,106.2 928.9,96.7 945.2,95.9 961.6,170.8 978.0,114.6 994.4,169.4 1010.8,117.2 1027.2,139.7 1043.6,182.4 1060.0,159.4" />
<rect x="60" y="368" width="12" height="4" fill="#2563eb" />
<text x="78" y="372" font-family="Segoe UI, Arial, sans-serif" font-size="11" fill="#111827">Symo  Advanced 24.0-3 480 (4) (2344E5)</text>
<rect x="380" y="368" width="12" height="4" fill="#dc2626" />
<text x="398" y="372" font-family="Segoe UI, Arial, sans-serif" font-size="11" fill="#111827">Symo 24.0-3 480 (1) (ECDEE1)</text>
<rect x="700" y="368" width="12" height="4" fill="#16a34a" />
<text x="718" y="372" font-family="Segoe UI, Arial, sans-serif" font-size="11" fill="#111827">Symo Advanced 24.0-3 480 (2) (2344D2)</text>
<rect x="60" y="384" width="12" height="4" fill="#d97706" />
<text x="78" y="388" font-family="Segoe UI, Arial, sans-serif" font-size="11" fill="#111827">Symo Advanced 24.0-3 480 (3) (2344DB)</text>
<rect x="380" y="384" width="12" height="4" fill="#7c3aed" />
<text x="398" y="388" font-family="Segoe UI, Arial, sans-serif" font-size="11" fill="#111827">Symo Advanced 24.0-3 480 (5) (2344EE)</text>
<rect x="700" y="384" width="12" height="4" fill="#0891b2" />
<text x="718" y="388" font-family="Segoe UI, Arial, sans-serif" font-size="11" fill="#111827">Symo Advanced 24.0-3 480 (6) (D2487C)</text>
<rect x="60" y="400" width="12" height="4" fill="#be185d" />
<text x="78" y="404" font-family="Segoe UI, Arial, sans-serif" font-size="11" fill="#111827">Symo Advanced 24.0-3 480 (7) (D3E7E7)</text>
</svg>