<svg xmlns="http://www.w3.org/2000/svg" width="1080" height="420" viewBox="0 0 1080 420">
<rect width="100%" height="100%" fill="white" />
<text x="60" y="24" font-family="Segoe UI, Arial, sans-serif" font-size="18" fill="#111827">Harker Arena - 4804040241200044 - Sustained underperformance</text>
<line x1="60" y1="330" x2="1060" y2="330" stroke="#374151" />
<line x1="60" y1="40" x2="60" y2="330" stroke="#374151" />
<line x1="60" y1="330.0" x2="1060" y2="330.0" stroke="#e5e7eb" />
<text x="52" y="334.0" text-anchor="end" font-family="Segoe UI, Arial, sans-serif" font-size="11" fill="#4b5563">0</text>
<line x1="60" y1="185.0" x2="1060" y2="185.0" stroke="#e5e7eb" />
<line x1="60" y1="40.0" x2="1060" y2="40.0" stroke="#e5e7eb" />
<text x="52" y="44.0" text-anchor="end" font-family="Segoe UI, Arial, sans-serif" font-size="11" fill="#4b5563">50</text>
<text x="60.0" y="348" text-anchor="middle" font-family="Segoe UI, Arial, sans-serif" font-size="9" fill="#4b5563">2026-02-14</text>
<text x="143.3" y="348" text-anchor="middle" font-family="Segoe UI, Arial, sans-serif" font-size="9" fill="#4b5563">02-15</text>
<text x="226.7" y="348" text-anchor="middle" font-family="Segoe UI, Arial, sans-serif" font-size="9" fill="#4b5563">02-16</text>
<text x="310.0" y="348" text-anchor="middle" font-family="Segoe UI, Arial, sans-serif" font-size="9" fill="#4b5563">02-17</text>
<text x="393.3" y="348" text-anchor="middle" font-family="Segoe UI, Arial, sans-serif" font-size="9" fill="#4b5563">02-18</text>
<text x="476.7" y="348" text-anchor="middle" font-family="Segoe UI, Arial, sans-serif" font-size="9" fill="#4b5563">02-19</text>
<text x="560.0" y="348" text-anchor="middle" font-family="Segoe UI, Arial, sans-serif" font-size="9" fill="#4b5563">02-20</text>
<text x="643.3" y="348" text-anchor="middle" font-family="Segoe UI, Arial, sans-serif" font-size="9" fill="#4b5563">02-21</text>
<text x="726.7" y="348" text-anchor="middle" font-family="Segoe UI, Arial, sans-serif" font-size="9" fill="#4b5563">02-22</text>
<text x="810.0" y="348" text-anchor="middle" font-family="Segoe UI, Arial, sans-serif" font-size="9" fill="#4b5563">02-23</text>
<text x="893.3" y="348" text-anchor="middle" font-family="Segoe UI, Arial, sans-serif" font-size="9" fill="#4b5563">02-24</text>
<text x="976.7" y="348" text-anchor="middle" font-family="Segoe UI, Arial, sans-serif" font-size="9" fill="#4b5563">02-25</text>
<text x="1060.0" y="348" text-anchor="middle" font-family="Segoe UI, Arial, sans-serif" font-size="9" fill="#4b5563">2026-02-26</text>
<polyline fill="none" stroke="#2563eb" stroke-width="2" points="60.0,136.3 143.3,109.0 226.7,214.6 310.0,306.2 393.3,296.4 476.7,200.7 560.0,241.8 643.3,181.5 726.7,178.0 810.0,187.9 893.3,84.1 976.7,257.5 1060.0,135.1" />
<polyline fill="none" stroke="#dc2626" stroke-width="2" points="60.0,129.3 143.3,98.0 226.7,214.6 310.0,318.4 393.3,311.4 476.7,266.8 560.0,280.1 643.3,226.2 726.7,202.4 810.0,179.8 893.3,84.1 976.7,258.7 1060.0,131.6" />
<polyline fill="none" stroke="#16a34a" stroke-width="2" points="60.0,142.7 143.3,116.0 226.7,215.7 310.0,322.5 393.3,315.5 476.7,264.5 560.0,281.3 643.3,252.3 726.7,216.9 810.0,170.5 893.3,87.0 976.7,256.9 1060.0,141.5" />
<polyline fill="none" stroke="#d97706" stroke-width="2" points="60.0,145.6 143.3,120.0 226.7,216.3 310.0,326.5 393.3,320.7 476.7,299.8 560.0,303.3 643.3,254.6 726.7,193.7 810.0,165.3 893.3,87.6 976.7,254.6 1060.0,144.4" />
<rect x="60" y="368" width="12" height="4" fill="#2563eb" />
<text x="78" y="372" font-family="Segoe UI, Arial, sans-serif" font-size="11" fill="#111827">4804040241200005</text>
<rect x="380" y="368" width="12" height="4" fill="#dc2626" />
<text x="398" y="372" font-family="Segoe UI, Arial, sans-serif" font-size="11" fill="#111827">4804040241200012</text>
<rect x="700" y="368" width="12" height="4" fill="#16a34a" />
<text x="718" y="372" font-family="Segoe UI, Arial, sans-serif" font-size="11" fill="#111827">4804040241200032</text>
<rect x="60" y="384" width="12" height="4" fill="#d97706" />
<text x="78" y="388" font-family="Segoe UI, Arial, sans-serif" font-size="11" fill="#111827">4804040241200044</text>
</svg>