<svg xmlns="http://www.w3.org/2000/svg" width="1080" height="420" viewBox="0 0 1080 420">
<rect width="100%" height="100%" fill="white" />
<text x="60" y="24" font-family="Segoe UI, Arial, sans-serif" font-size="18" fill="#111827">Harker Arena - ALL_INVERTERS - All inverters offline</text>
<line x1="60" y1="330" x2="1060" y2="330" stroke="#374151" />
<line x1="60" y1="40" x2="60" y2="330" stroke="#374151" />
<line x1="60" y1="330.0" x2="1060" y2="330.0" stroke="#e5e7eb" />
<text x="52" y="334.0" text-anchor="end" font-family="Segoe UI, Arial, sans-serif" font-size="11" fill="#4b5563">0</text>
<line x1="60" y1="257.5" x2="1060" y2="257.5" stroke="#e5e7eb" />
<line x1="60" y1="185.0" x2="1060" y2="185.0" stroke="#e5e7eb" />
<text x="52" y="189.0" text-anchor="end" font-family="Segoe UI, Arial, sans-serif" font-size="11" fill="#4b5563">50</text>
<line x1="60" y1="112.5" x2="1060" y2="112.5" stroke="#e5e7eb" />
<line x1="60" y1="40.0" x2="1060" y2="40.0" stroke="#e5e7eb" />
<text x="52" y="44.0" text-anchor="end" font-family="Segoe UI, Arial, sans-serif" font-size="11" fill="#4b5563">100</text>
<text x="60.0" y="348" text-anchor="middle" font-family="Segoe UI, Arial, sans-serif" font-size="9" fill="#4b5563">2026-04-29</text>
<text x="115.6" y="348" text-anchor="middle" font-family="Segoe UI, Arial, sans-serif" font-size="9" fill="#4b5563">04-30</text>
<text x="171.1" y="348" text-anchor="middle" font-family="Segoe UI, Arial, sans-serif" font-size="9" fill="#4b5563">05-01</text>
<text x="226.7" y="348" text-anchor="middle" font-family="Segoe UI, Arial, sans-serif" font-size="9" fill="#4b5563">05-02</text>
<text x="282.2" y="348" text-anchor="middle" font-family="Segoe UI, Arial, sans-serif" font-size="9" fill="#4b5563">05-03</text>
<text x="337.8" y="348" text-anchor="middle" font-family="Segoe UI, Arial, sans-serif" font-size="9" fill="#4b5563">05-04</text>
<text x="393.3" y="348" text-anchor="middle" font-family="Segoe UI, Arial, sans-serif" font-size="9" fill="#4b5563">05-05</text>
<text x="448.9" y="348" text-anchor="middle" font-family="Segoe UI, Arial, sans-serif" font-size="9" fill="#4b5563">05-06</text>
<text x="504.4" y="348" text-anchor="middle" font-family="Segoe UI, Arial, sans-serif" font-size="9" fill="#4b5563">05-07</text>
<text x="560.0" y="348" text-anchor="middle" font-family="Segoe UI, Arial, sans-serif" font-size="9" fill="#4b5563">05-08</text>
<text x="615.6" y="348" text-anchor="middle" font-family="Segoe UI, Arial, sans-serif" font-size="9" fill="#4b5563">05-09</text>
<text x="671.1" y="348" text-anchor="middle" font-family="Segoe UI, Arial, sans-serif" font-size="9" fill="#4b5563">05-10</text>
<text x="726.7" y="348" text-anchor="middle" font-family="Segoe UI, Arial, sans-serif" font-size="9" fill="#4b5563">05-11</text>
<text x="782.2" y="348" text-anchor="middle" font-family="Segoe UI, Arial, sans-serif" font-size="9" fill="#4b5563">05-12</text>
<text x="837.8" y="348" text-anchor="middle" font-family="Segoe UI, Arial, sans-serif" font-size="9" fill="#4b5563">05-13</text>
<text x="893.3" y="348" text-anchor="middle" font-family="Segoe UI, Arial, sans-serif" font-size="9" fill="#4b5563">05-14</text>
<text x="948.9" y="348" text-anchor="middle" font-family="Segoe UI, Arial, sans-serif" font-size="9" fill="#4b5563">05-15</text>
<text x="1004.4" y="348" text-anchor="middle" font-family="Segoe UI, Arial, sans-serif" font-size="9" fill="#4b5563">05-16</text>
<text x="1060.0" y="348" text-anchor="middle" font-family="Segoe UI, Arial, sans-serif" font-size="9" fill="#4b5563">2026-05-17</text>
<polyline fill="none" stroke="#2563eb" stroke-width="2" points="60.0,200.7 115.6,181.2 171.1,185.9 226.7,215.4 282.2,192.0" />
<polyline fill="none" stroke="#2563eb" stroke-width="2" stroke-dasharray="6 4" points="282.2,192.0 337.8,330.0 393.3,330.0 448.9,330.0 504.4,330.0 560.0,330.0 615.6,330.0 671.1,330.0 726.7,330.0 782.2,330.0 837.8,294.9" />
<circle cx="282.2" cy="192.0" r="4" fill="white" stroke="#2563eb" stroke-width="2" />
<circle cx="837.8" cy="294.9" r="4" fill="white" stroke="#2563eb" stroke-width="2" />
<circle cx="282.2" cy="192.0" r="4" fill="#2563eb" stroke="#2563eb" stroke-width="2" />
<circle cx="282.2" cy="192.0" r="4" fill="#2563eb" stroke="#2563eb" stroke-width="2" />
<circle cx="282.2" cy="192.0" r="4" fill="#2563eb" stroke="#2563eb" stroke-width="2" />
<circle cx="282.2" cy="192.0" r="4" fill="#2563eb" stroke="#2563eb" stroke-width="2" />
<circle cx="282.2" cy="192.0" r="4" fill="#2563eb" stroke="#2563eb" stroke-width="2" />
<circle cx="282.2" cy="192.0" r="4" fill="#2563eb" stroke="#2563eb" stroke-width="2" />
<circle cx="282.2" cy="192.0" r="4" fill="#2563eb" stroke="#2563eb" stroke-width="2" />
<circle cx="282.2" cy="192.0" r="4" fill="#2563eb" stroke="#2563eb" stroke-width="2" />
<circle cx="837.8" cy="294.9" r="4" fill="#2563eb" stroke="#2563eb" stroke-width="2" />
<circle cx="837.8" cy="294.9" r="4" fill="#2563eb" stroke="#2563eb" stroke-width="2" />
<circle cx="837.8" cy="294.9" r="4" fill="#2563eb" stroke="#2563eb" stroke-width="2" />
<circle cx="837.8" cy="294.9" r="4" fill="#2563eb" stroke="#2563eb" stroke-width="2" />
<circle cx="837.8" cy="294.9" r="4" fill="#2563eb" stroke="#2563eb" stroke-width="2" />
<polyline fill="none" stroke="#dc2626" stroke-width="2" points="60.0,199.2 115.6,179.5 171.1,184.7 226.7,214.6 282.2,185.6" />
<polyline fill="none" stroke="#dc2626" stroke-width="2" stroke-dasharray="6 4" points="282.2,185.6 337.8,330.0 393.3,330.0 448.9,330.0 504.4,330.0 560.0,330.0 615.6,330.0 671.1,330.0 726.7,330.0 782.2,330.0 837.8,295.2" />
<circle cx="282.2" cy="185.6" r="4" fill="white" stroke="#dc2626" stroke-width="2" />
<circle cx="837.8" cy="295.2" r="4" fill="white" stroke="#dc2626" stroke-width="2" />
<circle cx="282.2" cy="185.6" r="4" fill="#dc2626" stroke="#dc2626" stroke-width="2" />
<circle cx="282.2" cy="185.6" r="4" fill="#dc2626" stroke="#dc2626" stroke-width="2" />
<circle cx="282.2" cy="185.6" r="4" fill="#dc2626" stroke="#dc2626" stroke-width="2" />
<circle cx="282.2" cy="185.6" r="4" fill="#dc2626" stroke="#dc2626" stroke-width="2" />
<circle cx="282.2" cy="185.6" r="4" fill="#dc2626" stroke="#dc2626" stroke-width="2" />
<circle cx="282.2" cy="185.6" r="4" fill="#dc2626" stroke="#dc2626" stroke-width="2" />
<circle cx="282.2" cy="185.6" r="4" fill="#dc2626" stroke="#dc2626" stroke-width="2" />
<circle cx="282.2" cy="185.6" r="4" fill="#dc2626" stroke="#dc2626" stroke-width="2" />
<circle cx="837.8" cy="295.2" r="4" fill="#dc2626" stroke="#dc2626" stroke-width="2" />
<circle cx="837.8" cy="295.2" r="4" fill="#dc2626" stroke="#dc2626" stroke-width="2" />
<circle cx="837.8" cy="295.2" r="4" fill="#dc2626" stroke="#dc2626" stroke-width="2" />
<circle cx="837.8" cy="295.2" r="4" fill="#dc2626" stroke="#dc2626" stroke-width="2" />
<circle cx="837.8" cy="295.2" r="4" fill="#dc2626" stroke="#dc2626" stroke-width="2" />
<polyline fill="none" stroke="#16a34a" stroke-width="2" points="60.0,205.9 115.6,186.7 171.1,190.8 226.7,219.5 282.2,198.0" />
<polyline fill="none" stroke="#16a34a" stroke-width="2" stroke-dasharray="6 4" points="282.2,198.0 337.8,330.0 393.3,330.0 448.9,330.0 504.4,330.0 560.0,330.0 615.6,330.0 671.1,330.0 726.7,330.0 782.2,330.0 837.8,295.2" />
<circle cx="282.2" cy="198.0" r="4" fill="white" stroke="#16a34a" stroke-width="2" />
<circle cx="837.8" cy="295.2" r="4" fill="white" stroke="#16a34a" stroke-width="2" />
<circle cx="282.2" cy="198.0" r="4" fill="#16a34a" stroke="#16a34a" stroke-width="2" />
<circle cx="282.2" cy="198.0" r="4" fill="#16a34a" stroke="#16a34a" stroke-width="2" />
<circle cx="282.2" cy="198.0" r="4" fill="#16a34a" stroke="#16a34a" stroke-width="2" />
<circle cx="282.2" cy="198.0" r="4" fill="#16a34a" stroke="#16a34a" stroke-width="2" />
<circle cx="282.2" cy="198.0" r="4" fill="#16a34a" stroke="#16a34a" stroke-width="2" />
<circle cx="282.2" cy="198.0" r="4" fill="#16a34a" stroke="#16a34a" stroke-width="2" />
<circle cx="282.2" cy="198.0" r="4" fill="#16a34a" stroke="#16a34a" stroke-width="2" />
<circle cx="282.2" cy="198.0" r="4" fill="#16a34a" stroke="#16a34a" stroke-width="2" />
<circle cx="837.8" cy="295.2" r="4" fill="#16a34a" stroke="#16a34a" stroke-width="2" />
<circle cx="837.8" cy="295.2" r="4" fill="#16a34a" stroke="#16a34a" stroke-width="2" />
<circle cx="837.8" cy="295.2" r="4" fill="#16a34a" stroke="#16a34a" stroke-width="2" />
<circle cx="837.8" cy="295.2" r="4" fill="#16a34a" stroke="#16a34a" stroke-width="2" />
<circle cx="837.8" cy="295.2" r="4" fill="#16a34a" stroke="#16a34a" stroke-width="2" />
<polyline fill="none" stroke="#d97706" stroke-width="2" points="60.0,207.6 115.6,187.9 171.1,193.4 226.7,221.0 282.2,199.8" />
<polyline fill="none" stroke="#d97706" stroke-width="2" stroke-dasharray="6 4" points="282.2,199.8 337.8,330.0 393.3,330.0 448.9,330.0 504.4,330.0 560.0,330.0 615.6,330.0 671.1,330.0 726.7,330.0 782.2,330.0 837.8,294.3" />
<circle cx="282.2" cy="199.8" r="4" fill="white" stroke="#d97706" stroke-width="2" />
<circle cx="837.8" cy="294.3" r="4" fill="white" stroke="#d97706" stroke-width="2" />
<circle cx="282.2" cy="199.8" r="4" fill="#d97706" stroke="#d97706" stroke-width="2" />
<circle cx="282.2" cy="199.8" r="4" fill="#d97706" stroke="#d97706" stroke-width="2" />
<circle cx="282.2" cy="199.8" r="4" fill="#d97706" stroke="#d97706" stroke-width="2" />
<circle cx="282.2" cy="199.8" r="4" fill="#d97706" stroke="#d97706" stroke-width="2" />
<circle cx="282.2" cy="199.8" r="4" fill="#d97706" stroke="#d97706" stroke-width="2" />
<circle cx="282.2" cy="199.8" r="4" fill="#d97706" stroke="#d97706" stroke-width="2" />
<circle cx="282.2" cy="199.8" r="4" fill="#d97706" stroke="#d97706" stroke-width="2" />
<circle cx="282.2" cy="199.8" r="4" fill="#d97706" stroke="#d97706" stroke-width="2" />
<circle cx="837.8" cy="294.3" r="4" fill="#d97706" stroke="#d97706" stroke-width="2" />
<circle cx="837.8" cy="294.3" r="4" fill="#d97706" stroke="#d97706" stroke-width="2" />
<circle cx="837.8" cy="294.3" r="4" fill="#d97706" stroke="#d97706" stroke-width="2" />
<circle cx="837.8" cy="294.3" r="4" fill="#d97706" stroke="#d97706" stroke-width="2" />
<circle cx="837.8" cy="294.3" r="4" fill="#d97706" stroke="#d97706" stroke-width="2" />
<rect x="60" y="368" width="12" height="4" fill="#2563eb" />
<text x="78" y="372" font-family="Segoe UI, Arial, sans-serif" font-size="11" fill="#111827">4804040241200005</text>
<rect x="380" y="368" width="12" height="4" fill="#dc2626" />
<text x="398" y="372" font-family="Segoe UI, Arial, sans-serif" font-size="11" fill="#111827">4804040241200012</text>
<rect x="700" y="368" width="12" height="4" fill="#16a34a" />
<text x="718" y="372" font-family="Segoe UI, Arial, sans-serif" font-size="11" fill="#111827">4804040241200032</text>
<rect x="60" y="384" width="12" height="4" fill="#d97706" />
<text x="78" y="388" font-family="Segoe UI, Arial, sans-serif" font-size="11" fill="#111827">4804040241200044</text>
</svg>