<svg xmlns="http://www.w3.org/2000/svg" width="1080" height="420" viewBox="0 0 1080 420">
<rect width="100%" height="100%" fill="white" />
<text x="60" y="24" font-family="Segoe UI, Arial, sans-serif" font-size="18" fill="#111827">Wheatcrest 1 NE 34 #7000 - 1811450248060002 and ALL_INVERTERS - All inverters offline</text>
<line x1="60" y1="330" x2="1060" y2="330" stroke="#374151" />
<line x1="60" y1="40" x2="60" y2="330" stroke="#374151" />
<line x1="60" y1="330.0" x2="1060" y2="330.0" stroke="#e5e7eb" />
<text x="52" y="334.0" text-anchor="end" font-family="Segoe UI, Arial, sans-serif" font-size="11" fill="#4b5563">0</text>
<line x1="60" y1="321.5" x2="1060" y2="321.5" stroke="#e5e7eb" />
<line x1="60" y1="312.9" x2="1060" y2="312.9" stroke="#e5e7eb" />
<text x="52" y="316.9" text-anchor="end" font-family="Segoe UI, Arial, sans-serif" font-size="11" fill="#4b5563">50</text>
<line x1="60" y1="304.4" x2="1060" y2="304.4" stroke="#e5e7eb" />
<line x1="60" y1="295.9" x2="1060" y2="295.9" stroke="#e5e7eb" />
<text x="52" y="299.9" text-anchor="end" font-family="Segoe UI, Arial, sans-serif" font-size="11" fill="#4b5563">100</text>
<line x1="60" y1="287.4" x2="1060" y2="287.4" stroke="#e5e7eb" />
<line x1="60" y1="278.8" x2="1060" y2="278.8" stroke="#e5e7eb" />
<text x="52" y="282.8" text-anchor="end" font-family="Segoe UI, Arial, sans-serif" font-size="11" fill="#4b5563">150</text>
<line x1="60" y1="270.3" x2="1060" y2="270.3" stroke="#e5e7eb" />
<line x1="60" y1="261.8" x2="1060" y2="261.8" stroke="#e5e7eb" />
<text x="52" y="265.8" text-anchor="end" font-family="Segoe UI, Arial, sans-serif" font-size="11" fill="#4b5563">200</text>
<line x1="60" y1="253.2" x2="1060" y2="253.2" stroke="#e5e7eb" />
<line x1="60" y1="244.7" x2="1060" y2="244.7" stroke="#e5e7eb" />
<text x="52" y="248.7" text-anchor="end" font-family="Segoe UI, Arial, sans-serif" font-size="11" fill="#4b5563">250</text>
<line x1="60" y1="236.2" x2="1060" y2="236.2" stroke="#e5e7eb" />
<line x1="60" y1="227.6" x2="1060" y2="227.6" stroke="#e5e7eb" />
<text x="52" y="231.6" text-anchor="end" font-family="Segoe UI, Arial, sans-serif" font-size="11" fill="#4b5563">300</text>
<line x1="60" y1="219.1" x2="1060" y2="219.1" stroke="#e5e7eb" />
<line x1="60" y1="210.6" x2="1060" y2="210.6" stroke="#e5e7eb" />
<text x="52" y="214.6" text-anchor="end" font-family="Segoe UI, Arial, sans-serif" font-size="11" fill="#4b5563">350</text>
<line x1="60" y1="202.1" x2="1060" y2="202.1" stroke="#e5e7eb" />
<line x1="60" y1="193.5" x2="1060" y2="193.5" stroke="#e5e7eb" />
<text x="52" y="197.5" text-anchor="end" font-family="Segoe UI, Arial, sans-serif" font-size="11" fill="#4b5563">400</text>
<line x1="60" y1="185.0" x2="1060" y2="185.0" stroke="#e5e7eb" />
<line x1="60" y1="176.5" x2="1060" y2="176.5" stroke="#e5e7eb" />
<text x="52" y="180.5" text-anchor="end" font-family="Segoe UI, Arial, sans-serif" font-size="11" fill="#4b5563">450</text>
<line x1="60" y1="167.9" x2="1060" y2="167.9" stroke="#e5e7eb" />
<line x1="60" y1="159.4" x2="1060" y2="159.4" stroke="#e5e7eb" />
<text x="52" y="163.4" text-anchor="end" font-family="Segoe UI, Arial, sans-serif" font-size="11" fill="#4b5563">500</text>
<line x1="60" y1="150.9" x2="1060" y2="150.9" stroke="#e5e7eb" />
<line x1="60" y1="142.4" x2="1060" y2="142.4" stroke="#e5e7eb" />
<text x="52" y="146.4" text-anchor="end" font-family="Segoe UI, Arial, sans-serif" font-size="11" fill="#4b5563">550</text>
<line x1="60" y1="133.8" x2="1060" y2="133.8" stroke="#e5e7eb" />
<line x1="60" y1="125.3" x2="1060" y2="125.3" stroke="#e5e7eb" />
<text x="52" y="129.3" text-anchor="end" font-family="Segoe UI, Arial, sans-serif" font-size="11" fill="#4b5563">600</text>
<line x1="60" y1="116.8" x2="1060" y2="116.8" stroke="#e5e7eb" />
<line x1="60" y1="108.2" x2="1060" y2="108.2" stroke="#e5e7eb" />
<text x="52" y="112.2" text-anchor="end" font-family="Segoe UI, Arial, sans-serif" font-size="11" fill="#4b5563">650</text>
<line x1="60" y1="99.7" x2="1060" y2="99.7" stroke="#e5e7eb" />
<line x1="60" y1="91.2" x2="1060" y2="91.2" stroke="#e5e7eb" />
<text x="52" y="95.2" text-anchor="end" font-family="Segoe UI, Arial, sans-serif" font-size="11" fill="#4b5563">700</text>
<line x1="60" y1="82.6" x2="1060" y2="82.6" stroke="#e5e7eb" />
<line x1="60" y1="74.1" x2="1060" y2="74.1" stroke="#e5e7eb" />
<text x="52" y="78.1" text-anchor="end" font-family="Segoe UI, Arial, sans-serif" font-size="11" fill="#4b5563">750</text>
<line x1="60" y1="65.6" x2="1060" y2="65.6" stroke="#e5e7eb" />
<line x1="60" y1="57.1" x2="1060" y2="57.1" stroke="#e5e7eb" />
<text x="52" y="61.1" text-anchor="end" font-family="Segoe UI, Arial, sans-serif" font-size="11" fill="#4b5563">800</text>
<line x1="60" y1="48.5" x2="1060" y2="48.5" stroke="#e5e7eb" />
<line x1="60" y1="40.0" x2="1060" y2="40.0" stroke="#e5e7eb" />
<text x="52" y="44.0" text-anchor="end" font-family="Segoe UI, Arial, sans-serif" font-size="11" fill="#4b5563">850</text>
<text x="60.0" y="348" text-anchor="middle" font-family="Segoe UI, Arial, sans-serif" font-size="9" fill="#4b5563">2025-01-27</text>
<text x="78.5" y="348" text-anchor="middle" font-family="Segoe UI, Arial, sans-serif" font-size="9" fill="#4b5563">01-28</text>
<text x="97.0" y="348" text-anchor="middle" font-family="Segoe UI, Arial, sans-serif" font-size="9" fill="#4b5563">01-29</text>
<text x="115.6" y="348" text-anchor="middle" font-family="Segoe UI, Arial, sans-serif" font-size="9" fill="#4b5563">01-30</text>
<text x="134.1" y="348" text-anchor="middle" font-family="Segoe UI, Arial, sans-serif" font-size="9" fill="#4b5563">01-31</text>
<text x="152.6" y="348" text-anchor="middle" font-family="Segoe UI, Arial, sans-serif" font-size="9" fill="#4b5563">02-01</text>
<text x="171.1" y="348" text-anchor="middle" font-family="Segoe UI, Arial, sans-serif" font-size="9" fill="#4b5563">02-02</text>
<text x="189.6" y="348" text-anchor="middle" font-family="Segoe UI, Arial, sans-serif" font-size="9" fill="#4b5563">02-03</text>
<text x="208.1" y="348" text-anchor="middle" font-family="Segoe UI, Arial, sans-serif" font-size="9" fill="#4b5563">02-04</text>
<text x="226.7" y="348" text-anchor="middle" font-family="Segoe UI, Arial, sans-serif" font-size="9" fill="#4b5563">02-05</text>
<text x="245.2" y="348" text-anchor="middle" font-family="Segoe UI, Arial, sans-serif" font-size="9" fill="#4b5563">02-06</text>
<text x="263.7" y="348" text-anchor="middle" font-family="Segoe UI, Arial, sans-serif" font-size="9" fill="#4b5563">02-07</text>
<text x="282.2" y="348" text-anchor="middle" font-family="Segoe UI, Arial, sans-serif" font-size="9" fill="#4b5563">02-08</text>
<text x="300.7" y="348" text-anchor="middle" font-family="Segoe UI, Arial, sans-serif" font-size="9" fill="#4b5563">02-09</text>
<text x="319.3" y="348" text-anchor="middle" font-family="Segoe UI, Arial, sans-serif" font-size="9" fill="#4b5563">02-10</text>
<text x="337.8" y="348" text-anchor="middle" font-family="Segoe UI, Arial, sans-serif" font-size="9" fill="#4b5563">02-11</text>
<text x="356.3" y="348" text-anchor="middle" font-family="Segoe UI, Arial, sans-serif" font-size="9" fill="#4b5563">02-12</text>
<text x="374.8" y="348" text-anchor="middle" font-family="Segoe UI, Arial, sans-serif" font-size="9" fill="#4b5563">02-13</text>
<text x="393.3" y="348" text-anchor="middle" font-family="Segoe UI, Arial, sans-serif" font-size="9" fill="#4b5563">02-14</text>
<text x="411.9" y="348" text-anchor="middle" font-family="Segoe UI, Arial, sans-serif" font-size="9" fill="#4b5563">02-15</text>
<text x="430.4" y="348" text-anchor="middle" font-family="Segoe UI, Arial, sans-serif" font-size="9" fill="#4b5563">02-16</text>
<text x="448.9" y="348" text-anchor="middle" font-family="Segoe UI, Arial, sans-serif" font-size="9" fill="#4b5563">02-17</text>
<text x="467.4" y="348" text-anchor="middle" font-family="Segoe UI, Arial, sans-serif" font-size="9" fill="#4b5563">02-18</text>
<text x="485.9" y="348" text-anchor="middle" font-family="Segoe UI, Arial, sans-serif" font-size="9" fill="#4b5563">02-19</text>
<text x="504.4" y="348" text-anchor="middle" font-family="Segoe UI, Arial, sans-serif" font-size="9" fill="#4b5563">02-20</text>
<text x="523.0" y="348" text-anchor="middle" font-family="Segoe UI, Arial, sans-serif" font-size="9" fill="#4b5563">02-21</text>
<text x="541.5" y="348" text-anchor="middle" font-family="Segoe UI, Arial, sans-serif" font-size="9" fill="#4b5563">02-22</text>
<text x="560.0" y="348" text-anchor="middle" font-family="Segoe UI, Arial, sans-serif" font-size="9" fill="#4b5563">02-23</text>
<text x="578.5" y="348" text-anchor="middle" font-family="Segoe UI, Arial, sans-serif" font-size="9" fill="#4b5563">02-24</text>
<text x="597.0" y="348" text-anchor="middle" font-family="Segoe UI, Arial, sans-serif" font-size="9" fill="#4b5563">02-25</text>
<text x="615.6" y="348" text-anchor="middle" font-family="Segoe UI, Arial, sans-serif" font-size="9" fill="#4b5563">02-26</text>
<text x="634.1" y="348" text-anchor="middle" font-family="Segoe UI, Arial, sans-serif" font-size="9" fill="#4b5563">02-27</text>
<text x="652.6" y="348" text-anchor="middle" font-family="Segoe UI, Arial, sans-serif" font-size="9" fill="#4b5563">02-28</text>
<text x="671.1" y="348" text-anchor="middle" font-family="Segoe UI, Arial, sans-serif" font-size="9" fill="#4b5563">03-01</text>
<text x="689.6" y="348" text-anchor="middle" font-family="Segoe UI, Arial, sans-serif" font-size="9" fill="#4b5563">03-02</text>
<text x="708.1" y="348" text-anchor="middle" font-family="Segoe UI, Arial, sans-serif" font-size="9" fill="#4b5563">03-03</text>
<text x="726.7" y="348" text-anchor="middle" font-family="Segoe UI, Arial, sans-serif" font-size="9" fill="#4b5563">03-04</text>
<text x="745.2" y="348" text-anchor="middle" font-family="Segoe UI, Arial, sans-serif" font-size="9" fill="#4b5563">03-05</text>
<text x="763.7" y="348" text-anchor="middle" font-family="Segoe UI, Arial, sans-serif" font-size="9" fill="#4b5563">03-06</text>
<text x="782.2" y="348" text-anchor="middle" font-family="Segoe UI, Arial, sans-serif" font-size="9" fill="#4b5563">03-07</text>
<text x="800.7" y="348" text-anchor="middle" font-family="Segoe UI, Arial, sans-serif" font-size="9" fill="#4b5563">03-08</text>
<text x="819.3" y="348" text-anchor="middle" font-family="Segoe UI, Arial, sans-serif" font-size="9" fill="#4b5563">03-09</text>
<text x="837.8" y="348" text-anchor="middle" font-family="Segoe UI, Arial, sans-serif" font-size="9" fill="#4b5563">03-10</text>
<text x="856.3" y="348" text-anchor="middle" font-family="Segoe UI, Arial, sans-serif" font-size="9" fill="#4b5563">03-11</text>
<text x="874.8" y="348" text-anchor="middle" font-family="Segoe UI, Arial, sans-serif" font-size="9" fill="#4b5563">03-12</text>
<text x="893.3" y="348" text-anchor="middle" font-family="Segoe UI, Arial, sans-serif" font-size="9" fill="#4b5563">03-13</text>
<text x="911.9" y="348" text-anchor="middle" font-family="Segoe UI, Arial, sans-serif" font-size="9" fill="#4b5563">03-14</text>
<text x="930.4" y="348" text-anchor="middle" font-family="Segoe UI, Arial, sans-serif" font-size="9" fill="#4b5563">03-15</text>
<text x="948.9" y="348" text-anchor="middle" font-family="Segoe UI, Arial, sans-serif" font-size="9" fill="#4b5563">03-16</text>
<text x="967.4" y="348" text-anchor="middle" font-family="Segoe UI, Arial, sans-serif" font-size="9" fill="#4b5563">03-17</text>
<text x="985.9" y="348" text-anchor="middle" font-family="Segoe UI, Arial, sans-serif" font-size="9" fill="#4b5563">03-18</text>
<text x="1004.4" y="348" text-anchor="middle" font-family="Segoe UI, Arial, sans-serif" font-size="9" fill="#4b5563">03-19</text>
<text x="1023.0" y="348" text-anchor="middle" font-family="Segoe UI, Arial, sans-serif" font-size="9" fill="#4b5563">03-20</text>
<text x="1041.5" y="348" text-anchor="middle" font-family="Segoe UI, Arial, sans-serif" font-size="9" fill="#4b5563">03-21</text>
<text x="1060.0" y="348" text-anchor="middle" font-family="Segoe UI, Arial, sans-serif" font-size="9" fill="#4b5563">2025-03-22</text>
<polyline fill="none" stroke="#2563eb" stroke-width="2" points="985.9,280.6 1004.4,237.4 1023.0,292.9 1041.5,239.1 1060.0,262.5" />
<polyline fill="none" stroke="#dc2626" stroke-width="2" points="263.7,261.3 282.2,247.9 300.7,294.4 319.3,214.4 337.8,217.7 356.3,200.8 374.8,186.1 393.3,276.8 411.9,255.8 430.4,232.8 448.9,148.3 467.4,178.4 485.9,143.9 504.4,190.0 523.0,171.6 541.5,144.8 560.0,114.8 578.5,111.1 597.0,104.1 615.6,97.6 634.1,161.6 652.6,99.8 671.1,88.0 689.6,84.8 708.1,274.8 726.7,86.6 745.2,182.0 763.7,82.7 782.2,76.0 800.7,223.5 819.3,233.7 837.8,182.3 856.3,194.1 874.8,226.4 893.3,220.9 911.9,203.6 930.4,255.4 948.9,291.4 967.4,158.8 985.9,184.5 1004.4,72.8 1023.0,220.4 1041.5,92.9 1060.0,158.6" />
<polyline fill="none" stroke="#dc2626" stroke-width="2" stroke-dasharray="6 4" points="134.1,324.0 152.6,330.0 171.1,330.0 189.6,330.0 208.1,330.0 226.7,330.0 245.2,330.0 263.7,261.3" />
<circle cx="134.1" cy="324.0" r="4" fill="white" stroke="#dc2626" stroke-width="2" />
<circle cx="263.7" cy="261.3" r="4" fill="white" stroke="#dc2626" stroke-width="2" />
<circle cx="134.1" cy="324.0" r="4" fill="#dc2626" stroke="#dc2626" stroke-width="2" />
<circle cx="134.1" cy="324.0" r="4" fill="#dc2626" stroke="#dc2626" stroke-width="2" />
<circle cx="134.1" cy="324.0" r="4" fill="#dc2626" stroke="#dc2626" stroke-width="2" />
<circle cx="134.1" cy="324.0" r="4" fill="#dc2626" stroke="#dc2626" stroke-width="2" />
<circle cx="134.1" cy="324.0" r="4" fill="#dc2626" stroke="#dc2626" stroke-width="2" />
<circle cx="134.1" cy="324.0" r="4" fill="#dc2626" stroke="#dc2626" stroke-width="2" />
<rect x="60" y="368" width="12" height="4" fill="#2563eb" />
<text x="78" y="372" font-family="Segoe UI, Arial, sans-serif" font-size="11" fill="#111827">1811450248060002</text>
<rect x="380" y="368" width="12" height="4" fill="#dc2626" />
<text x="398" y="372" font-family="Segoe UI, Arial, sans-serif" font-size="11" fill="#111827">40130B1246110135</text>
</svg>