<svg xmlns="http://www.w3.org/2000/svg" width="1080" height="420" viewBox="0 0 1080 420">
<rect width="100%" height="100%" fill="white" />
<text x="60" y="24" font-family="Segoe UI, Arial, sans-serif" font-size="18" fill="#111827">Hutterville Layer Barn - 181147023C150012 - Inverter outage / near-zero production</text>
<line x1="60" y1="330" x2="1060" y2="330" stroke="#374151" />
<line x1="60" y1="40" x2="60" y2="330" stroke="#374151" />
<line x1="60" y1="330.0" x2="1060" y2="330.0" stroke="#e5e7eb" />
<text x="52" y="334.0" text-anchor="end" font-family="Segoe UI, Arial, sans-serif" font-size="11" fill="#4b5563">0</text>
<line x1="60" y1="317.9" x2="1060" y2="317.9" stroke="#e5e7eb" />
<line x1="60" y1="305.8" x2="1060" y2="305.8" stroke="#e5e7eb" />
<text x="52" y="309.8" text-anchor="end" font-family="Segoe UI, Arial, sans-serif" font-size="11" fill="#4b5563">50</text>
<line x1="60" y1="293.8" x2="1060" y2="293.8" stroke="#e5e7eb" />
<line x1="60" y1="281.7" x2="1060" y2="281.7" stroke="#e5e7eb" />
<text x="52" y="285.7" text-anchor="end" font-family="Segoe UI, Arial, sans-serif" font-size="11" fill="#4b5563">100</text>
<line x1="60" y1="269.6" x2="1060" y2="269.6" stroke="#e5e7eb" />
<line x1="60" y1="257.5" x2="1060" y2="257.5" stroke="#e5e7eb" />
<text x="52" y="261.5" text-anchor="end" font-family="Segoe UI, Arial, sans-serif" font-size="11" fill="#4b5563">150</text>
<line x1="60" y1="245.4" x2="1060" y2="245.4" stroke="#e5e7eb" />
<line x1="60" y1="233.3" x2="1060" y2="233.3" stroke="#e5e7eb" />
<text x="52" y="237.3" text-anchor="end" font-family="Segoe UI, Arial, sans-serif" font-size="11" fill="#4b5563">200</text>
<line x1="60" y1="221.2" x2="1060" y2="221.2" stroke="#e5e7eb" />
<line x1="60" y1="209.2" x2="1060" y2="209.2" stroke="#e5e7eb" />
<text x="52" y="213.2" text-anchor="end" font-family="Segoe UI, Arial, sans-serif" font-size="11" fill="#4b5563">250</text>
<line x1="60" y1="197.1" x2="1060" y2="197.1" stroke="#e5e7eb" />
<line x1="60" y1="185.0" x2="1060" y2="185.0" stroke="#e5e7eb" />
<text x="52" y="189.0" text-anchor="end" font-family="Segoe UI, Arial, sans-serif" font-size="11" fill="#4b5563">300</text>
<line x1="60" y1="172.9" x2="1060" y2="172.9" stroke="#e5e7eb" />
<line x1="60" y1="160.8" x2="1060" y2="160.8" stroke="#e5e7eb" />
<text x="52" y="164.8" text-anchor="end" font-family="Segoe UI, Arial, sans-serif" font-size="11" fill="#4b5563">350</text>
<line x1="60" y1="148.8" x2="1060" y2="148.8" stroke="#e5e7eb" />
<line x1="60" y1="136.7" x2="1060" y2="136.7" stroke="#e5e7eb" />
<text x="52" y="140.7" text-anchor="end" font-family="Segoe UI, Arial, sans-serif" font-size="11" fill="#4b5563">400</text>
<line x1="60" y1="124.6" x2="1060" y2="124.6" stroke="#e5e7eb" />
<line x1="60" y1="112.5" x2="1060" y2="112.5" stroke="#e5e7eb" />
<text x="52" y="116.5" text-anchor="end" font-family="Segoe UI, Arial, sans-serif" font-size="11" fill="#4b5563">450</text>
<line x1="60" y1="100.4" x2="1060" y2="100.4" stroke="#e5e7eb" />
<line x1="60" y1="88.3" x2="1060" y2="88.3" stroke="#e5e7eb" />
<text x="52" y="92.3" text-anchor="end" font-family="Segoe UI, Arial, sans-serif" font-size="11" fill="#4b5563">500</text>
<line x1="60" y1="76.2" x2="1060" y2="76.2" stroke="#e5e7eb" />
<line x1="60" y1="64.2" x2="1060" y2="64.2" stroke="#e5e7eb" />
<text x="52" y="68.2" text-anchor="end" font-family="Segoe UI, Arial, sans-serif" font-size="11" fill="#4b5563">550</text>
<line x1="60" y1="52.1" x2="1060" y2="52.1" stroke="#e5e7eb" />
<line x1="60" y1="40.0" x2="1060" y2="40.0" stroke="#e5e7eb" />
<text x="52" y="44.0" text-anchor="end" font-family="Segoe UI, Arial, sans-serif" font-size="11" fill="#4b5563">600</text>
<text x="60.0" y="348" text-anchor="middle" font-family="Segoe UI, Arial, sans-serif" font-size="9" fill="#4b5563">2025-08-09</text>
<text x="160.0" y="348" text-anchor="middle" font-family="Segoe UI, Arial, sans-serif" font-size="9" fill="#4b5563">08-10</text>
<text x="260.0" y="348" text-anchor="middle" font-family="Segoe UI, Arial, sans-serif" font-size="9" fill="#4b5563">08-11</text>
<text x="360.0" y="348" text-anchor="middle" font-family="Segoe UI, Arial, sans-serif" font-size="9" fill="#4b5563">08-12</text>
<text x="460.0" y="348" text-anchor="middle" font-family="Segoe UI, Arial, sans-serif" font-size="9" fill="#4b5563">08-13</text>
<text x="560.0" y="348" text-anchor="middle" font-family="Segoe UI, Arial, sans-serif" font-size="9" fill="#4b5563">08-14</text>
<text x="660.0" y="348" text-anchor="middle" font-family="Segoe UI, Arial, sans-serif" font-size="9" fill="#4b5563">08-15</text>
<text x="760.0" y="348" text-anchor="middle" font-family="Segoe UI, Arial, sans-serif" font-size="9" fill="#4b5563">08-16</text>
<text x="860.0" y="348" text-anchor="middle" font-family="Segoe UI, Arial, sans-serif" font-size="9" fill="#4b5563">08-17</text>
<text x="960.0" y="348" text-anchor="middle" font-family="Segoe UI, Arial, sans-serif" font-size="9" fill="#4b5563">08-18</text>
<text x="1060.0" y="348" text-anchor="middle" font-family="Segoe UI, Arial, sans-serif" font-size="9" fill="#4b5563">2025-08-19</text>
<polyline fill="none" stroke="#2563eb" stroke-width="2" points="560.0,248.0 660.0,163.2 760.0,139.4 860.0,95.6 960.0,91.5 1060.0,87.3" />
<polyline fill="none" stroke="#dc2626" stroke-width="2" points="660.0,153.0 760.0,136.6 860.0,91.5 960.0,87.7 1060.0,84.5" />
<rect x="60" y="368" width="12" height="4" fill="#2563eb" />
<text x="78" y="372" font-family="Segoe UI, Arial, sans-serif" font-size="11" fill="#111827">181147023C150008</text>
<rect x="380" y="368" width="12" height="4" fill="#dc2626" />
<text x="398" y="372" font-family="Segoe UI, Arial, sans-serif" font-size="11" fill="#111827">181147023C150012</text>
</svg>