<svg xmlns="http://www.w3.org/2000/svg" width="1080" height="420" viewBox="0 0 1080 420">
<rect width="100%" height="100%" fill="white" />
<text x="60" y="24" font-family="Segoe UI, Arial, sans-serif" font-size="18" fill="#111827">Wheatcrest 2 NE 34 #6008 - 1811450248060009 and ALL_INVERTERS - All inverters offline</text>
<line x1="60" y1="330" x2="1060" y2="330" stroke="#374151" />
<line x1="60" y1="40" x2="60" y2="330" stroke="#374151" />
<line x1="60" y1="330.0" x2="1060" y2="330.0" stroke="#e5e7eb" />
<text x="52" y="334.0" text-anchor="end" font-family="Segoe UI, Arial, sans-serif" font-size="11" fill="#4b5563">0</text>
<line x1="60" y1="321.5" x2="1060" y2="321.5" stroke="#e5e7eb" />
<line x1="60" y1="312.9" x2="1060" y2="312.9" stroke="#e5e7eb" />
<text x="52" y="316.9" text-anchor="end" font-family="Segoe UI, Arial, sans-serif" font-size="11" fill="#4b5563">50</text>
<line x1="60" y1="304.4" x2="1060" y2="304.4" stroke="#e5e7eb" />
<line x1="60" y1="295.9" x2="1060" y2="295.9" stroke="#e5e7eb" />
<text x="52" y="299.9" text-anchor="end" font-family="Segoe UI, Arial, sans-serif" font-size="11" fill="#4b5563">100</text>
<line x1="60" y1="287.4" x2="1060" y2="287.4" stroke="#e5e7eb" />
<line x1="60" y1="278.8" x2="1060" y2="278.8" stroke="#e5e7eb" />
<text x="52" y="282.8" text-anchor="end" font-family="Segoe UI, Arial, sans-serif" font-size="11" fill="#4b5563">150</text>
<line x1="60" y1="270.3" x2="1060" y2="270.3" stroke="#e5e7eb" />
<line x1="60" y1="261.8" x2="1060" y2="261.8" stroke="#e5e7eb" />
<text x="52" y="265.8" text-anchor="end" font-family="Segoe UI, Arial, sans-serif" font-size="11" fill="#4b5563">200</text>
<line x1="60" y1="253.2" x2="1060" y2="253.2" stroke="#e5e7eb" />
<line x1="60" y1="244.7" x2="1060" y2="244.7" stroke="#e5e7eb" />
<text x="52" y="248.7" text-anchor="end" font-family="Segoe UI, Arial, sans-serif" font-size="11" fill="#4b5563">250</text>
<line x1="60" y1="236.2" x2="1060" y2="236.2" stroke="#e5e7eb" />
<line x1="60" y1="227.6" x2="1060" y2="227.6" stroke="#e5e7eb" />
<text x="52" y="231.6" text-anchor="end" font-family="Segoe UI, Arial, sans-serif" font-size="11" fill="#4b5563">300</text>
<line x1="60" y1="219.1" x2="1060" y2="219.1" stroke="#e5e7eb" />
<line x1="60" y1="210.6" x2="1060" y2="210.6" stroke="#e5e7eb" />
<text x="52" y="214.6" text-anchor="end" font-family="Segoe UI, Arial, sans-serif" font-size="11" fill="#4b5563">350</text>
<line x1="60" y1="202.1" x2="1060" y2="202.1" stroke="#e5e7eb" />
<line x1="60" y1="193.5" x2="1060" y2="193.5" stroke="#e5e7eb" />
<text x="52" y="197.5" text-anchor="end" font-family="Segoe UI, Arial, sans-serif" font-size="11" fill="#4b5563">400</text>
<line x1="60" y1="185.0" x2="1060" y2="185.0" stroke="#e5e7eb" />
<line x1="60" y1="176.5" x2="1060" y2="176.5" stroke="#e5e7eb" />
<text x="52" y="180.5" text-anchor="end" font-family="Segoe UI, Arial, sans-serif" font-size="11" fill="#4b5563">450</text>
<line x1="60" y1="167.9" x2="1060" y2="167.9" stroke="#e5e7eb" />
<line x1="60" y1="159.4" x2="1060" y2="159.4" stroke="#e5e7eb" />
<text x="52" y="163.4" text-anchor="end" font-family="Segoe UI, Arial, sans-serif" font-size="11" fill="#4b5563">500</text>
<line x1="60" y1="150.9" x2="1060" y2="150.9" stroke="#e5e7eb" />
<line x1="60" y1="142.4" x2="1060" y2="142.4" stroke="#e5e7eb" />
<text x="52" y="146.4" text-anchor="end" font-family="Segoe UI, Arial, sans-serif" font-size="11" fill="#4b5563">550</text>
<line x1="60" y1="133.8" x2="1060" y2="133.8" stroke="#e5e7eb" />
<line x1="60" y1="125.3" x2="1060" y2="125.3" stroke="#e5e7eb" />
<text x="52" y="129.3" text-anchor="end" font-family="Segoe UI, Arial, sans-serif" font-size="11" fill="#4b5563">600</text>
<line x1="60" y1="116.8" x2="1060" y2="116.8" stroke="#e5e7eb" />
<line x1="60" y1="108.2" x2="1060" y2="108.2" stroke="#e5e7eb" />
<text x="52" y="112.2" text-anchor="end" font-family="Segoe UI, Arial, sans-serif" font-size="11" fill="#4b5563">650</text>
<line x1="60" y1="99.7" x2="1060" y2="99.7" stroke="#e5e7eb" />
<line x1="60" y1="91.2" x2="1060" y2="91.2" stroke="#e5e7eb" />
<text x="52" y="95.2" text-anchor="end" font-family="Segoe UI, Arial, sans-serif" font-size="11" fill="#4b5563">700</text>
<line x1="60" y1="82.6" x2="1060" y2="82.6" stroke="#e5e7eb" />
<line x1="60" y1="74.1" x2="1060" y2="74.1" stroke="#e5e7eb" />
<text x="52" y="78.1" text-anchor="end" font-family="Segoe UI, Arial, sans-serif" font-size="11" fill="#4b5563">750</text>
<line x1="60" y1="65.6" x2="1060" y2="65.6" stroke="#e5e7eb" />
<line x1="60" y1="57.1" x2="1060" y2="57.1" stroke="#e5e7eb" />
<text x="52" y="61.1" text-anchor="end" font-family="Segoe UI, Arial, sans-serif" font-size="11" fill="#4b5563">800</text>
<line x1="60" y1="48.5" x2="1060" y2="48.5" stroke="#e5e7eb" />
<line x1="60" y1="40.0" x2="1060" y2="40.0" stroke="#e5e7eb" />
<text x="52" y="44.0" text-anchor="end" font-family="Segoe UI, Arial, sans-serif" font-size="11" fill="#4b5563">850</text>
<text x="60.0" y="348" text-anchor="middle" font-family="Segoe UI, Arial, sans-serif" font-size="9" fill="#4b5563">2025-02-06</text>
<text x="90.3" y="348" text-anchor="middle" font-family="Segoe UI, Arial, sans-serif" font-size="9" fill="#4b5563">02-07</text>
<text x="120.6" y="348" text-anchor="middle" font-family="Segoe UI, Arial, sans-serif" font-size="9" fill="#4b5563">02-08</text>
<text x="150.9" y="348" text-anchor="middle" font-family="Segoe UI, Arial, sans-serif" font-size="9" fill="#4b5563">02-09</text>
<text x="181.2" y="348" text-anchor="middle" font-family="Segoe UI, Arial, sans-serif" font-size="9" fill="#4b5563">02-10</text>
<text x="211.5" y="348" text-anchor="middle" font-family="Segoe UI, Arial, sans-serif" font-size="9" fill="#4b5563">02-11</text>
<text x="241.8" y="348" text-anchor="middle" font-family="Segoe UI, Arial, sans-serif" font-size="9" fill="#4b5563">02-12</text>
<text x="272.1" y="348" text-anchor="middle" font-family="Segoe UI, Arial, sans-serif" font-size="9" fill="#4b5563">02-13</text>
<text x="302.4" y="348" text-anchor="middle" font-family="Segoe UI, Arial, sans-serif" font-size="9" fill="#4b5563">02-14</text>
<text x="332.7" y="348" text-anchor="middle" font-family="Segoe UI, Arial, sans-serif" font-size="9" fill="#4b5563">02-15</text>
<text x="363.0" y="348" text-anchor="middle" font-family="Segoe UI, Arial, sans-serif" font-size="9" fill="#4b5563">02-16</text>
<text x="393.3" y="348" text-anchor="middle" font-family="Segoe UI, Arial, sans-serif" font-size="9" fill="#4b5563">02-17</text>
<text x="423.6" y="348" text-anchor="middle" font-family="Segoe UI, Arial, sans-serif" font-size="9" fill="#4b5563">02-18</text>
<text x="453.9" y="348" text-anchor="middle" font-family="Segoe UI, Arial, sans-serif" font-size="9" fill="#4b5563">02-19</text>
<text x="484.2" y="348" text-anchor="middle" font-family="Segoe UI, Arial, sans-serif" font-size="9" fill="#4b5563">02-20</text>
<text x="514.5" y="348" text-anchor="middle" font-family="Segoe UI, Arial, sans-serif" font-size="9" fill="#4b5563">02-21</text>
<text x="544.8" y="348" text-anchor="middle" font-family="Segoe UI, Arial, sans-serif" font-size="9" fill="#4b5563">02-22</text>
<text x="575.2" y="348" text-anchor="middle" font-family="Segoe UI, Arial, sans-serif" font-size="9" fill="#4b5563">02-23</text>
<text x="605.5" y="348" text-anchor="middle" font-family="Segoe UI, Arial, sans-serif" font-size="9" fill="#4b5563">02-24</text>
<text x="635.8" y="348" text-anchor="middle" font-family="Segoe UI, Arial, sans-serif" font-size="9" fill="#4b5563">02-25</text>
<text x="666.1" y="348" text-anchor="middle" font-family="Segoe UI, Arial, sans-serif" font-size="9" fill="#4b5563">02-26</text>
<text x="696.4" y="348" text-anchor="middle" font-family="Segoe UI, Arial, sans-serif" font-size="9" fill="#4b5563">02-27</text>
<text x="726.7" y="348" text-anchor="middle" font-family="Segoe UI, Arial, sans-serif" font-size="9" fill="#4b5563">02-28</text>
<text x="757.0" y="348" text-anchor="middle" font-family="Segoe UI, Arial, sans-serif" font-size="9" fill="#4b5563">03-01</text>
<text x="787.3" y="348" text-anchor="middle" font-family="Segoe UI, Arial, sans-serif" font-size="9" fill="#4b5563">03-02</text>
<text x="817.6" y="348" text-anchor="middle" font-family="Segoe UI, Arial, sans-serif" font-size="9" fill="#4b5563">03-03</text>
<text x="847.9" y="348" text-anchor="middle" font-family="Segoe UI, Arial, sans-serif" font-size="9" fill="#4b5563">03-04</text>
<text x="878.2" y="348" text-anchor="middle" font-family="Segoe UI, Arial, sans-serif" font-size="9" fill="#4b5563">03-05</text>
<text x="908.5" y="348" text-anchor="middle" font-family="Segoe UI, Arial, sans-serif" font-size="9" fill="#4b5563">03-06</text>
<text x="938.8" y="348" text-anchor="middle" font-family="Segoe UI, Arial, sans-serif" font-size="9" fill="#4b5563">03-07</text>
<text x="969.1" y="348" text-anchor="middle" font-family="Segoe UI, Arial, sans-serif" font-size="9" fill="#4b5563">03-08</text>
<text x="999.4" y="348" text-anchor="middle" font-family="Segoe UI, Arial, sans-serif" font-size="9" fill="#4b5563">03-09</text>
<text x="1029.7" y="348" text-anchor="middle" font-family="Segoe UI, Arial, sans-serif" font-size="9" fill="#4b5563">03-10</text>
<text x="1060.0" y="348" text-anchor="middle" font-family="Segoe UI, Arial, sans-serif" font-size="9" fill="#4b5563">2025-03-11</text>
<polyline fill="none" stroke="#2563eb" stroke-width="2" points="938.8,277.6 969.1,293.8 999.4,297.6 1029.7,278.1 1060.0,266.9" />
<polyline fill="none" stroke="#dc2626" stroke-width="2" points="423.6,126.1 453.9,120.8 484.2,181.9 514.5,168.4 544.8,141.6 575.2,113.8 605.5,109.6 635.8,102.8 666.1,96.2 696.4,160.7 726.7,97.8 757.0,86.8 787.3,83.4 817.6,274.3 847.9,84.1 878.2,181.1 908.5,81.6 938.8,78.4 969.1,222.4 999.4,232.8 1029.7,178.4 1060.0,150.7" />
<rect x="60" y="368" width="12" height="4" fill="#2563eb" />
<text x="78" y="372" font-family="Segoe UI, Arial, sans-serif" font-size="11" fill="#111827">1811450248060009</text>
<rect x="380" y="368" width="12" height="4" fill="#dc2626" />
<text x="398" y="372" font-family="Segoe UI, Arial, sans-serif" font-size="11" fill="#111827">40130B1246110134</text>
</svg>