<svg xmlns="http://www.w3.org/2000/svg" width="1080" height="420" viewBox="0 0 1080 420">
<rect width="100%" height="100%" fill="white" />
<text x="60" y="24" font-family="Segoe UI, Arial, sans-serif" font-size="18" fill="#111827">Hutterville Layer Barn - ALL_INVERTERS - All inverters offline</text>
<line x1="60" y1="330" x2="1060" y2="330" stroke="#374151" />
<line x1="60" y1="40" x2="60" y2="330" stroke="#374151" />
<line x1="60" y1="330.0" x2="1060" y2="330.0" stroke="#e5e7eb" />
<text x="52" y="334.0" text-anchor="end" font-family="Segoe UI, Arial, sans-serif" font-size="11" fill="#4b5563">0</text>
<line x1="60" y1="316.8" x2="1060" y2="316.8" stroke="#e5e7eb" />
<line x1="60" y1="303.6" x2="1060" y2="303.6" stroke="#e5e7eb" />
<text x="52" y="307.6" text-anchor="end" font-family="Segoe UI, Arial, sans-serif" font-size="11" fill="#4b5563">50</text>
<line x1="60" y1="290.5" x2="1060" y2="290.5" stroke="#e5e7eb" />
<line x1="60" y1="277.3" x2="1060" y2="277.3" stroke="#e5e7eb" />
<text x="52" y="281.3" text-anchor="end" font-family="Segoe UI, Arial, sans-serif" font-size="11" fill="#4b5563">100</text>
<line x1="60" y1="264.1" x2="1060" y2="264.1" stroke="#e5e7eb" />
<line x1="60" y1="250.9" x2="1060" y2="250.9" stroke="#e5e7eb" />
<text x="52" y="254.9" text-anchor="end" font-family="Segoe UI, Arial, sans-serif" font-size="11" fill="#4b5563">150</text>
<line x1="60" y1="237.7" x2="1060" y2="237.7" stroke="#e5e7eb" />
<line x1="60" y1="224.5" x2="1060" y2="224.5" stroke="#e5e7eb" />
<text x="52" y="228.5" text-anchor="end" font-family="Segoe UI, Arial, sans-serif" font-size="11" fill="#4b5563">200</text>
<line x1="60" y1="211.4" x2="1060" y2="211.4" stroke="#e5e7eb" />
<line x1="60" y1="198.2" x2="1060" y2="198.2" stroke="#e5e7eb" />
<text x="52" y="202.2" text-anchor="end" font-family="Segoe UI, Arial, sans-serif" font-size="11" fill="#4b5563">250</text>
<line x1="60" y1="185.0" x2="1060" y2="185.0" stroke="#e5e7eb" />
<line x1="60" y1="171.8" x2="1060" y2="171.8" stroke="#e5e7eb" />
<text x="52" y="175.8" text-anchor="end" font-family="Segoe UI, Arial, sans-serif" font-size="11" fill="#4b5563">300</text>
<line x1="60" y1="158.6" x2="1060" y2="158.6" stroke="#e5e7eb" />
<line x1="60" y1="145.5" x2="1060" y2="145.5" stroke="#e5e7eb" />
<text x="52" y="149.5" text-anchor="end" font-family="Segoe UI, Arial, sans-serif" font-size="11" fill="#4b5563">350</text>
<line x1="60" y1="132.3" x2="1060" y2="132.3" stroke="#e5e7eb" />
<line x1="60" y1="119.1" x2="1060" y2="119.1" stroke="#e5e7eb" />
<text x="52" y="123.1" text-anchor="end" font-family="Segoe UI, Arial, sans-serif" font-size="11" fill="#4b5563">400</text>
<line x1="60" y1="105.9" x2="1060" y2="105.9" stroke="#e5e7eb" />
<line x1="60" y1="92.7" x2="1060" y2="92.7" stroke="#e5e7eb" />
<text x="52" y="96.7" text-anchor="end" font-family="Segoe UI, Arial, sans-serif" font-size="11" fill="#4b5563">450</text>
<line x1="60" y1="79.5" x2="1060" y2="79.5" stroke="#e5e7eb" />
<line x1="60" y1="66.4" x2="1060" y2="66.4" stroke="#e5e7eb" />
<text x="52" y="70.4" text-anchor="end" font-family="Segoe UI, Arial, sans-serif" font-size="11" fill="#4b5563">500</text>
<line x1="60" y1="53.2" x2="1060" y2="53.2" stroke="#e5e7eb" />
<line x1="60" y1="40.0" x2="1060" y2="40.0" stroke="#e5e7eb" />
<text x="52" y="44.0" text-anchor="end" font-family="Segoe UI, Arial, sans-serif" font-size="11" fill="#4b5563">550</text>
<text x="60.0" y="348" text-anchor="middle" font-family="Segoe UI, Arial, sans-serif" font-size="9" fill="#4b5563">2025-10-16</text>
<text x="118.8" y="348" text-anchor="middle" font-family="Segoe UI, Arial, sans-serif" font-size="9" fill="#4b5563">10-17</text>
<text x="177.6" y="348" text-anchor="middle" font-family="Segoe UI, Arial, sans-serif" font-size="9" fill="#4b5563">10-18</text>
<text x="236.5" y="348" text-anchor="middle" font-family="Segoe UI, Arial, sans-serif" font-size="9" fill="#4b5563">10-19</text>
<text x="295.3" y="348" text-anchor="middle" font-family="Segoe UI, Arial, sans-serif" font-size="9" fill="#4b5563">10-20</text>
<text x="354.1" y="348" text-anchor="middle" font-family="Segoe UI, Arial, sans-serif" font-size="9" fill="#4b5563">10-21</text>
<text x="412.9" y="348" text-anchor="middle" font-family="Segoe UI, Arial, sans-serif" font-size="9" fill="#4b5563">10-22</text>
<text x="471.8" y="348" text-anchor="middle" font-family="Segoe UI, Arial, sans-serif" font-size="9" fill="#4b5563">10-23</text>
<text x="530.6" y="348" text-anchor="middle" font-family="Segoe UI, Arial, sans-serif" font-size="9" fill="#4b5563">10-24</text>
<text x="589.4" y="348" text-anchor="middle" font-family="Segoe UI, Arial, sans-serif" font-size="9" fill="#4b5563">10-25</text>
<text x="648.2" y="348" text-anchor="middle" font-family="Segoe UI, Arial, sans-serif" font-size="9" fill="#4b5563">10-26</text>
<text x="707.1" y="348" text-anchor="middle" font-family="Segoe UI, Arial, sans-serif" font-size="9" fill="#4b5563">10-27</text>
<text x="765.9" y="348" text-anchor="middle" font-family="Segoe UI, Arial, sans-serif" font-size="9" fill="#4b5563">10-28</text>
<text x="824.7" y="348" text-anchor="middle" font-family="Segoe UI, Arial, sans-serif" font-size="9" fill="#4b5563">10-29</text>
<text x="883.5" y="348" text-anchor="middle" font-family="Segoe UI, Arial, sans-serif" font-size="9" fill="#4b5563">10-30</text>
<text x="942.4" y="348" text-anchor="middle" font-family="Segoe UI, Arial, sans-serif" font-size="9" fill="#4b5563">10-31</text>
<text x="1001.2" y="348" text-anchor="middle" font-family="Segoe UI, Arial, sans-serif" font-size="9" fill="#4b5563">11-01</text>
<text x="1060.0" y="348" text-anchor="middle" font-family="Segoe UI, Arial, sans-serif" font-size="9" fill="#4b5563">2025-11-02</text>
<polyline fill="none" stroke="#2563eb" stroke-width="2" points="60.0,98.8 118.8,213.1 177.6,321.0 236.5,236.6 295.3,180.7" />
<polyline fill="none" stroke="#2563eb" stroke-width="2" points="648.2,156.1 707.1,141.7" />
<polyline fill="none" stroke="#2563eb" stroke-width="2" points="824.7,141.1 883.5,135.4 942.4,227.6 1001.2,269.3 1060.0,124.2" />
<polyline fill="none" stroke="#2563eb" stroke-width="2" stroke-dasharray="6 4" points="295.3,180.7 354.1,330.0 412.9,106.2" />
<polyline fill="none" stroke="#2563eb" stroke-width="2" stroke-dasharray="6 4" points="412.9,106.2 471.8,330.0 530.6,291.5" />
<polyline fill="none" stroke="#2563eb" stroke-width="2" stroke-dasharray="6 4" points="530.6,291.5 589.4,330.0 648.2,156.1" />
<polyline fill="none" stroke="#2563eb" stroke-width="2" stroke-dasharray="6 4" points="707.1,141.7 765.9,330.0 824.7,141.1" />
<circle cx="295.3" cy="180.7" r="4" fill="white" stroke="#2563eb" stroke-width="2" />
<circle cx="412.9" cy="106.2" r="4" fill="white" stroke="#2563eb" stroke-width="2" />
<circle cx="412.9" cy="106.2" r="4" fill="white" stroke="#2563eb" stroke-width="2" />
<circle cx="530.6" cy="291.5" r="4" fill="white" stroke="#2563eb" stroke-width="2" />
<circle cx="530.6" cy="291.5" r="4" fill="white" stroke="#2563eb" stroke-width="2" />
<circle cx="648.2" cy="156.1" r="4" fill="white" stroke="#2563eb" stroke-width="2" />
<circle cx="707.1" cy="141.7" r="4" fill="white" stroke="#2563eb" stroke-width="2" />
<circle cx="824.7" cy="141.1" r="4" fill="white" stroke="#2563eb" stroke-width="2" />
<circle cx="412.9" cy="106.2" r="4" fill="#2563eb" stroke="#2563eb" stroke-width="2" />
<circle cx="530.6" cy="291.5" r="4" fill="#2563eb" stroke="#2563eb" stroke-width="2" />
<polyline fill="none" stroke="#dc2626" stroke-width="2" points="60.0,90.0 118.8,203.1 177.6,314.8 236.5,233.5 295.3,161.0" />
<polyline fill="none" stroke="#dc2626" stroke-width="2" points="648.2,140.9 707.1,131.1" />
<polyline fill="none" stroke="#dc2626" stroke-width="2" points="824.7,130.8 883.5,125.0 942.4,209.3 1001.2,263.6 1060.0,112.8" />
<polyline fill="none" stroke="#dc2626" stroke-width="2" stroke-dasharray="6 4" points="295.3,161.0 354.1,330.0 412.9,98.3" />
<polyline fill="none" stroke="#dc2626" stroke-width="2" stroke-dasharray="6 4" points="412.9,98.3 471.8,330.0 530.6,285.0" />
<polyline fill="none" stroke="#dc2626" stroke-width="2" stroke-dasharray="6 4" points="530.6,285.0 589.4,330.0 648.2,140.9" />
<polyline fill="none" stroke="#dc2626" stroke-width="2" stroke-dasharray="6 4" points="707.1,131.1 765.9,330.0 824.7,130.8" />
<circle cx="295.3" cy="161.0" r="4" fill="white" stroke="#dc2626" stroke-width="2" />
<circle cx="412.9" cy="98.3" r="4" fill="white" stroke="#dc2626" stroke-width="2" />
<circle cx="412.9" cy="98.3" r="4" fill="white" stroke="#dc2626" stroke-width="2" />
<circle cx="530.6" cy="285.0" r="4" fill="white" stroke="#dc2626" stroke-width="2" />
<circle cx="530.6" cy="285.0" r="4" fill="white" stroke="#dc2626" stroke-width="2" />
<circle cx="648.2" cy="140.9" r="4" fill="white" stroke="#dc2626" stroke-width="2" />
<circle cx="707.1" cy="131.1" r="4" fill="white" stroke="#dc2626" stroke-width="2" />
<circle cx="824.7" cy="130.8" r="4" fill="white" stroke="#dc2626" stroke-width="2" />
<circle cx="412.9" cy="98.3" r="4" fill="#dc2626" stroke="#dc2626" stroke-width="2" />
<circle cx="530.6" cy="285.0" r="4" fill="#dc2626" stroke="#dc2626" stroke-width="2" />
<rect x="60" y="368" width="12" height="4" fill="#2563eb" />
<text x="78" y="372" font-family="Segoe UI, Arial, sans-serif" font-size="11" fill="#111827">181147023C150008</text>
<rect x="380" y="368" width="12" height="4" fill="#dc2626" />
<text x="398" y="372" font-family="Segoe UI, Arial, sans-serif" font-size="11" fill="#111827">181147023C150012</text>
</svg>